G04 (created by PCBNEW-RS274X (2012-01-19 BZR 3256)-stable) date 9/14/2012 9:08:22 PM*
G01*
G70*
G90*
%MOIN*%
G04 Gerber Fmt 3.4, Leading zero omitted, Abs format*
%FSLAX34Y34*%
G04 APERTURE LIST*
%ADD10C,0.006000*%
%ADD11C,0.073100*%
%ADD12C,0.083000*%
%ADD13R,0.045000X0.065000*%
%ADD14R,0.065000X0.045000*%
%ADD15R,0.055000X0.075000*%
G04 APERTURE END LIST*
G54D10*
G54D11*
X55197Y-32559D03*
X55197Y-33543D03*
X55197Y-34528D03*
X55197Y-35512D03*
G54D12*
X50443Y-35334D03*
X50443Y-32736D03*
G54D10*
G36*
X53182Y-32667D02*
X53342Y-33181D01*
X52658Y-33181D01*
X52818Y-32667D01*
X53182Y-32667D01*
X53182Y-32667D01*
G37*
G36*
X52818Y-33733D02*
X52658Y-33219D01*
X53342Y-33219D01*
X53182Y-33733D01*
X52818Y-33733D01*
X52818Y-33733D01*
G37*
G36*
X54482Y-32667D02*
X54642Y-33181D01*
X53958Y-33181D01*
X54118Y-32667D01*
X54482Y-32667D01*
X54482Y-32667D01*
G37*
G36*
X54118Y-33733D02*
X53958Y-33219D01*
X54642Y-33219D01*
X54482Y-33733D01*
X54118Y-33733D01*
X54118Y-33733D01*
G37*
G36*
X53832Y-32667D02*
X53992Y-33181D01*
X53308Y-33181D01*
X53468Y-32667D01*
X53832Y-32667D01*
X53832Y-32667D01*
G37*
G36*
X53468Y-33733D02*
X53308Y-33219D01*
X53992Y-33219D01*
X53832Y-33733D01*
X53468Y-33733D01*
X53468Y-33733D01*
G37*
G54D13*
X51117Y-34803D03*
X51717Y-34803D03*
X51117Y-34016D03*
X51717Y-34016D03*
X52450Y-35550D03*
X51850Y-35550D03*
X51117Y-33228D03*
X51717Y-33228D03*
X52731Y-34961D03*
X53331Y-34961D03*
X52731Y-34173D03*
X53331Y-34173D03*
G54D14*
X54300Y-34100D03*
X54300Y-34700D03*
G54D15*
X53275Y-35600D03*
X54025Y-35600D03*
X51625Y-32450D03*
X52375Y-32450D03*
M02*
