G04 (created by PCBNEW-RS274X (2012-01-19 BZR 3256)-stable) date 9/14/2012 9:08:22 PM*
G01*
G70*
G90*
%MOIN*%
G04 Gerber Fmt 3.4, Leading zero omitted, Abs format*
%FSLAX34Y34*%
G04 APERTURE LIST*
%ADD10C,0.006000*%
%ADD11C,0.002500*%
%ADD12C,0.004900*%
%ADD13R,0.029800X0.059400*%
%ADD14C,0.073100*%
%ADD15R,0.073100X0.035700*%
%ADD16R,0.075100X0.083000*%
%ADD17R,0.094800X0.094800*%
%ADD18C,0.083000*%
G04 APERTURE END LIST*
G54D10*
G54D11*
X53870Y-32454D02*
X53870Y-32520D01*
X53870Y-32464D02*
X53875Y-32459D01*
X53884Y-32454D01*
X53898Y-32454D01*
X53908Y-32459D01*
X53912Y-32468D01*
X53912Y-32520D01*
X53959Y-32454D02*
X53959Y-32552D01*
X53959Y-32459D02*
X53969Y-32454D01*
X53987Y-32454D01*
X53997Y-32459D01*
X54001Y-32464D01*
X54006Y-32473D01*
X54006Y-32501D01*
X54001Y-32510D01*
X53997Y-32515D01*
X53987Y-32520D01*
X53969Y-32520D01*
X53959Y-32515D01*
X54025Y-32529D02*
X54100Y-32529D01*
X54142Y-32422D02*
X54151Y-32422D01*
X54161Y-32426D01*
X54165Y-32431D01*
X54170Y-32440D01*
X54175Y-32459D01*
X54175Y-32482D01*
X54170Y-32501D01*
X54165Y-32510D01*
X54161Y-32515D01*
X54151Y-32520D01*
X54142Y-32520D01*
X54133Y-32515D01*
X54128Y-32510D01*
X54123Y-32501D01*
X54119Y-32482D01*
X54119Y-32459D01*
X54123Y-32440D01*
X54128Y-32431D01*
X54133Y-32426D01*
X54142Y-32422D01*
X54221Y-32520D02*
X54240Y-32520D01*
X54249Y-32515D01*
X54254Y-32510D01*
X54263Y-32496D01*
X54268Y-32478D01*
X54268Y-32440D01*
X54263Y-32431D01*
X54258Y-32426D01*
X54249Y-32422D01*
X54230Y-32422D01*
X54221Y-32426D01*
X54216Y-32431D01*
X54212Y-32440D01*
X54212Y-32464D01*
X54216Y-32473D01*
X54221Y-32478D01*
X54230Y-32482D01*
X54249Y-32482D01*
X54258Y-32478D01*
X54263Y-32473D01*
X54268Y-32464D01*
X54305Y-32431D02*
X54309Y-32426D01*
X54319Y-32422D01*
X54342Y-32422D01*
X54351Y-32426D01*
X54356Y-32431D01*
X54361Y-32440D01*
X54361Y-32450D01*
X54356Y-32464D01*
X54300Y-32520D01*
X54361Y-32520D01*
X54421Y-32422D02*
X54430Y-32422D01*
X54440Y-32426D01*
X54444Y-32431D01*
X54449Y-32440D01*
X54454Y-32459D01*
X54454Y-32482D01*
X54449Y-32501D01*
X54444Y-32510D01*
X54440Y-32515D01*
X54430Y-32520D01*
X54421Y-32520D01*
X54412Y-32515D01*
X54407Y-32510D01*
X54402Y-32501D01*
X54398Y-32482D01*
X54398Y-32459D01*
X54402Y-32440D01*
X54407Y-32431D01*
X54412Y-32426D01*
X54421Y-32422D01*
X54547Y-32520D02*
X54491Y-32520D01*
X54519Y-32520D02*
X54519Y-32422D01*
X54509Y-32436D01*
X54500Y-32445D01*
X54491Y-32450D01*
X54584Y-32431D02*
X54588Y-32426D01*
X54598Y-32422D01*
X54621Y-32422D01*
X54630Y-32426D01*
X54635Y-32431D01*
X54640Y-32440D01*
X54640Y-32450D01*
X54635Y-32464D01*
X54579Y-32520D01*
X54640Y-32520D01*
G54D12*
X53947Y-32153D02*
X53947Y-32350D01*
X54041Y-32256D02*
X54050Y-32275D01*
X54069Y-32284D01*
X53947Y-32256D02*
X53956Y-32275D01*
X53975Y-32284D01*
X54013Y-32284D01*
X54031Y-32275D01*
X54041Y-32256D01*
X54041Y-32153D01*
X54125Y-32153D02*
X54200Y-32153D01*
X54153Y-32284D02*
X54153Y-32115D01*
X54162Y-32097D01*
X54181Y-32087D01*
X54200Y-32087D01*
X54238Y-32153D02*
X54313Y-32153D01*
X54266Y-32087D02*
X54266Y-32256D01*
X54275Y-32275D01*
X54294Y-32284D01*
X54313Y-32284D01*
X54463Y-32284D02*
X54463Y-32087D01*
X54463Y-32275D02*
X54445Y-32284D01*
X54407Y-32284D01*
X54388Y-32275D01*
X54379Y-32265D01*
X54370Y-32247D01*
X54370Y-32190D01*
X54379Y-32172D01*
X54388Y-32162D01*
X54407Y-32153D01*
X54445Y-32153D01*
X54463Y-32162D01*
X54557Y-32284D02*
X54557Y-32153D01*
X54557Y-32087D02*
X54548Y-32097D01*
X54557Y-32106D01*
X54566Y-32097D01*
X54557Y-32087D01*
X54557Y-32106D01*
G54D13*
X54250Y-33037D03*
X54000Y-33037D03*
X53750Y-33037D03*
X53500Y-33037D03*
X53250Y-33037D03*
X53000Y-33037D03*
X52750Y-33037D03*
X52500Y-33037D03*
X52500Y-35163D03*
X52750Y-35163D03*
X53000Y-35163D03*
X53250Y-35163D03*
X53500Y-35163D03*
X53750Y-35163D03*
X54000Y-35163D03*
X54250Y-35163D03*
G54D14*
X55197Y-32559D03*
X55197Y-33543D03*
X55197Y-34528D03*
X55197Y-35512D03*
G54D15*
X51496Y-33523D03*
X51496Y-33779D03*
X51496Y-34035D03*
X51496Y-34291D03*
X51496Y-34547D03*
G54D16*
X51417Y-32775D03*
X51417Y-35295D03*
G54D17*
X50443Y-34507D03*
X50443Y-33563D03*
G54D18*
X50443Y-35334D03*
X50443Y-32736D03*
M02*
