M48
;DRILL file {Pcbnew (2012-01-19 BZR 3256)-stable} date 9/14/2012 9:08:21 PM
;FORMAT={-:-/ absolute / inch / decimal}
FMAT,2
INCH,TZ
T1C0.013
T2C0.032
T3C0.047
%
G90
G05
M72
T1
X5.205Y-3.472
X5.209Y-3.437
X5.211Y-3.323
X5.213Y-3.358
X5.236Y-3.406
X5.250Y-3.354
X5.284Y-3.563
X5.293Y-3.248
X5.303Y-3.461
X5.331Y-3.374
X5.350Y-3.252
X5.372Y-3.461
X5.374Y-3.390
X5.380Y-3.423
T2
X5.520Y-3.256
X5.520Y-3.354
X5.520Y-3.453
X5.520Y-3.551
T3
X5.044Y-3.274
X5.044Y-3.533
T0
M30
