G04 (created by PCBNEW-RS274X (2012-01-19 BZR 3256)-stable) date 9/14/2012 9:08:22 PM*
G01*
G70*
G90*
%MOIN*%
G04 Gerber Fmt 3.4, Leading zero omitted, Abs format*
%FSLAX34Y34*%
G04 APERTURE LIST*
%ADD10C,0.006000*%
%ADD11C,0.005000*%
%ADD12C,0.002500*%
G04 APERTURE END LIST*
G54D10*
G54D11*
X50967Y-35053D02*
X51867Y-35053D01*
X51867Y-35053D02*
X51867Y-34553D01*
X51867Y-34553D02*
X50967Y-34553D01*
X50967Y-34553D02*
X50967Y-35053D01*
X50967Y-34266D02*
X51867Y-34266D01*
X51867Y-34266D02*
X51867Y-33766D01*
X51867Y-33766D02*
X50967Y-33766D01*
X50967Y-33766D02*
X50967Y-34266D01*
X52600Y-35300D02*
X51700Y-35300D01*
X51700Y-35300D02*
X51700Y-35800D01*
X51700Y-35800D02*
X52600Y-35800D01*
X52600Y-35800D02*
X52600Y-35300D01*
X50967Y-33478D02*
X51867Y-33478D01*
X51867Y-33478D02*
X51867Y-32978D01*
X51867Y-32978D02*
X50967Y-32978D01*
X50967Y-32978D02*
X50967Y-33478D01*
X52581Y-35211D02*
X53481Y-35211D01*
X53481Y-35211D02*
X53481Y-34711D01*
X53481Y-34711D02*
X52581Y-34711D01*
X52581Y-34711D02*
X52581Y-35211D01*
X52581Y-34423D02*
X53481Y-34423D01*
X53481Y-34423D02*
X53481Y-33923D01*
X53481Y-33923D02*
X52581Y-33923D01*
X52581Y-33923D02*
X52581Y-34423D01*
X54050Y-33950D02*
X54050Y-34850D01*
X54050Y-34850D02*
X54550Y-34850D01*
X54550Y-34850D02*
X54550Y-33950D01*
X54550Y-33950D02*
X54050Y-33950D01*
X53050Y-35300D02*
X53049Y-35309D01*
X53046Y-35319D01*
X53041Y-35327D01*
X53035Y-35335D01*
X53027Y-35341D01*
X53019Y-35346D01*
X53010Y-35348D01*
X53000Y-35349D01*
X52991Y-35349D01*
X52982Y-35346D01*
X52973Y-35341D01*
X52966Y-35335D01*
X52959Y-35328D01*
X52955Y-35319D01*
X52952Y-35310D01*
X52951Y-35300D01*
X52951Y-35291D01*
X52954Y-35282D01*
X52958Y-35273D01*
X52965Y-35266D01*
X52972Y-35259D01*
X52980Y-35255D01*
X52990Y-35252D01*
X52999Y-35251D01*
X53008Y-35251D01*
X53018Y-35254D01*
X53026Y-35258D01*
X53034Y-35264D01*
X53040Y-35272D01*
X53045Y-35280D01*
X53048Y-35289D01*
X53049Y-35299D01*
X53050Y-35300D01*
X53450Y-35300D02*
X53050Y-35300D01*
X53050Y-35300D02*
X53050Y-35900D01*
X53050Y-35900D02*
X53450Y-35900D01*
X53850Y-35900D02*
X54250Y-35900D01*
X54250Y-35900D02*
X54250Y-35300D01*
X54250Y-35300D02*
X53850Y-35300D01*
X51400Y-32150D02*
X51399Y-32159D01*
X51396Y-32169D01*
X51391Y-32177D01*
X51385Y-32185D01*
X51377Y-32191D01*
X51369Y-32196D01*
X51360Y-32198D01*
X51350Y-32199D01*
X51341Y-32199D01*
X51332Y-32196D01*
X51323Y-32191D01*
X51316Y-32185D01*
X51309Y-32178D01*
X51305Y-32169D01*
X51302Y-32160D01*
X51301Y-32150D01*
X51301Y-32141D01*
X51304Y-32132D01*
X51308Y-32123D01*
X51315Y-32116D01*
X51322Y-32109D01*
X51330Y-32105D01*
X51340Y-32102D01*
X51349Y-32101D01*
X51358Y-32101D01*
X51368Y-32104D01*
X51376Y-32108D01*
X51384Y-32114D01*
X51390Y-32122D01*
X51395Y-32130D01*
X51398Y-32139D01*
X51399Y-32149D01*
X51400Y-32150D01*
X51800Y-32150D02*
X51400Y-32150D01*
X51400Y-32150D02*
X51400Y-32750D01*
X51400Y-32750D02*
X51800Y-32750D01*
X52200Y-32750D02*
X52600Y-32750D01*
X52600Y-32750D02*
X52600Y-32150D01*
X52600Y-32150D02*
X52200Y-32150D01*
G54D12*
X51433Y-34843D02*
X51465Y-34796D01*
X51489Y-34843D02*
X51489Y-34745D01*
X51451Y-34745D01*
X51442Y-34749D01*
X51437Y-34754D01*
X51433Y-34763D01*
X51433Y-34777D01*
X51437Y-34787D01*
X51442Y-34791D01*
X51451Y-34796D01*
X51489Y-34796D01*
X51339Y-34843D02*
X51395Y-34843D01*
X51367Y-34843D02*
X51367Y-34745D01*
X51377Y-34759D01*
X51386Y-34768D01*
X51395Y-34773D01*
X51433Y-34056D02*
X51465Y-34009D01*
X51489Y-34056D02*
X51489Y-33958D01*
X51451Y-33958D01*
X51442Y-33962D01*
X51437Y-33967D01*
X51433Y-33976D01*
X51433Y-33990D01*
X51437Y-34000D01*
X51442Y-34004D01*
X51451Y-34009D01*
X51489Y-34009D01*
X51395Y-33967D02*
X51391Y-33962D01*
X51381Y-33958D01*
X51358Y-33958D01*
X51349Y-33962D01*
X51344Y-33967D01*
X51339Y-33976D01*
X51339Y-33986D01*
X51344Y-34000D01*
X51400Y-34056D01*
X51339Y-34056D01*
X52166Y-35590D02*
X52198Y-35543D01*
X52222Y-35590D02*
X52222Y-35492D01*
X52184Y-35492D01*
X52175Y-35496D01*
X52170Y-35501D01*
X52166Y-35510D01*
X52166Y-35524D01*
X52170Y-35534D01*
X52175Y-35538D01*
X52184Y-35543D01*
X52222Y-35543D01*
X52133Y-35492D02*
X52072Y-35492D01*
X52105Y-35529D01*
X52091Y-35529D01*
X52082Y-35534D01*
X52077Y-35538D01*
X52072Y-35548D01*
X52072Y-35571D01*
X52077Y-35580D01*
X52082Y-35585D01*
X52091Y-35590D01*
X52119Y-35590D01*
X52128Y-35585D01*
X52133Y-35580D01*
X51433Y-33268D02*
X51465Y-33221D01*
X51489Y-33268D02*
X51489Y-33170D01*
X51451Y-33170D01*
X51442Y-33174D01*
X51437Y-33179D01*
X51433Y-33188D01*
X51433Y-33202D01*
X51437Y-33212D01*
X51442Y-33216D01*
X51451Y-33221D01*
X51489Y-33221D01*
X51349Y-33202D02*
X51349Y-33268D01*
X51372Y-33165D02*
X51395Y-33235D01*
X51335Y-33235D01*
X53047Y-34991D02*
X53051Y-34996D01*
X53065Y-35001D01*
X53075Y-35001D01*
X53089Y-34996D01*
X53098Y-34987D01*
X53103Y-34977D01*
X53107Y-34959D01*
X53107Y-34945D01*
X53103Y-34926D01*
X53098Y-34917D01*
X53089Y-34907D01*
X53075Y-34903D01*
X53065Y-34903D01*
X53051Y-34907D01*
X53047Y-34912D01*
X52953Y-35001D02*
X53009Y-35001D01*
X52981Y-35001D02*
X52981Y-34903D01*
X52991Y-34917D01*
X53000Y-34926D01*
X53009Y-34931D01*
X53047Y-34203D02*
X53051Y-34208D01*
X53065Y-34213D01*
X53075Y-34213D01*
X53089Y-34208D01*
X53098Y-34199D01*
X53103Y-34189D01*
X53107Y-34171D01*
X53107Y-34157D01*
X53103Y-34138D01*
X53098Y-34129D01*
X53089Y-34119D01*
X53075Y-34115D01*
X53065Y-34115D01*
X53051Y-34119D01*
X53047Y-34124D01*
X53009Y-34124D02*
X53005Y-34119D01*
X52995Y-34115D01*
X52972Y-34115D01*
X52963Y-34119D01*
X52958Y-34124D01*
X52953Y-34133D01*
X52953Y-34143D01*
X52958Y-34157D01*
X53014Y-34213D01*
X52953Y-34213D01*
X54330Y-34384D02*
X54335Y-34380D01*
X54340Y-34366D01*
X54340Y-34356D01*
X54335Y-34342D01*
X54326Y-34333D01*
X54316Y-34328D01*
X54298Y-34324D01*
X54284Y-34324D01*
X54265Y-34328D01*
X54256Y-34333D01*
X54246Y-34342D01*
X54242Y-34356D01*
X54242Y-34366D01*
X54246Y-34380D01*
X54251Y-34384D01*
X54242Y-34417D02*
X54242Y-34478D01*
X54279Y-34445D01*
X54279Y-34459D01*
X54284Y-34468D01*
X54288Y-34473D01*
X54298Y-34478D01*
X54321Y-34478D01*
X54330Y-34473D01*
X54335Y-34468D01*
X54340Y-34459D01*
X54340Y-34431D01*
X54335Y-34422D01*
X54330Y-34417D01*
X53722Y-35640D02*
X53722Y-35542D01*
X53698Y-35542D01*
X53684Y-35546D01*
X53675Y-35556D01*
X53670Y-35565D01*
X53666Y-35584D01*
X53666Y-35598D01*
X53670Y-35616D01*
X53675Y-35626D01*
X53684Y-35635D01*
X53698Y-35640D01*
X53722Y-35640D01*
X53572Y-35640D02*
X53628Y-35640D01*
X53600Y-35640D02*
X53600Y-35542D01*
X53610Y-35556D01*
X53619Y-35565D01*
X53628Y-35570D01*
X52072Y-32490D02*
X52072Y-32392D01*
X52048Y-32392D01*
X52034Y-32396D01*
X52025Y-32406D01*
X52020Y-32415D01*
X52016Y-32434D01*
X52016Y-32448D01*
X52020Y-32466D01*
X52025Y-32476D01*
X52034Y-32485D01*
X52048Y-32490D01*
X52072Y-32490D01*
X51978Y-32401D02*
X51974Y-32396D01*
X51964Y-32392D01*
X51941Y-32392D01*
X51932Y-32396D01*
X51927Y-32401D01*
X51922Y-32410D01*
X51922Y-32420D01*
X51927Y-32434D01*
X51983Y-32490D01*
X51922Y-32490D01*
M02*
