G04 (created by PCBNEW-RS274X (2012-01-19 BZR 3256)-stable) date 9/14/2012 9:08:22 PM*
G01*
G70*
G90*
%MOIN*%
G04 Gerber Fmt 3.4, Leading zero omitted, Abs format*
%FSLAX34Y34*%
G04 APERTURE LIST*
%ADD10C,0.006000*%
%ADD11C,0.053100*%
%ADD12C,0.063000*%
%ADD13R,0.025000X0.045000*%
%ADD14R,0.045000X0.025000*%
%ADD15R,0.035000X0.055000*%
%ADD16C,0.027000*%
G04 APERTURE END LIST*
G54D10*
G54D11*
X55197Y-32559D03*
X55197Y-33543D03*
X55197Y-34528D03*
X55197Y-35512D03*
G54D12*
X50443Y-35334D03*
X50443Y-32736D03*
G54D10*
G36*
X53108Y-32767D02*
X53206Y-33081D01*
X52794Y-33081D01*
X52892Y-32767D01*
X53108Y-32767D01*
X53108Y-32767D01*
G37*
G36*
X52892Y-33633D02*
X52794Y-33319D01*
X53206Y-33319D01*
X53108Y-33633D01*
X52892Y-33633D01*
X52892Y-33633D01*
G37*
G36*
X54408Y-32767D02*
X54506Y-33081D01*
X54094Y-33081D01*
X54192Y-32767D01*
X54408Y-32767D01*
X54408Y-32767D01*
G37*
G36*
X54192Y-33633D02*
X54094Y-33319D01*
X54506Y-33319D01*
X54408Y-33633D01*
X54192Y-33633D01*
X54192Y-33633D01*
G37*
G36*
X53758Y-32767D02*
X53856Y-33081D01*
X53444Y-33081D01*
X53542Y-32767D01*
X53758Y-32767D01*
X53758Y-32767D01*
G37*
G36*
X53542Y-33633D02*
X53444Y-33319D01*
X53856Y-33319D01*
X53758Y-33633D01*
X53542Y-33633D01*
X53542Y-33633D01*
G37*
G54D13*
X51117Y-34803D03*
X51717Y-34803D03*
X51117Y-34016D03*
X51717Y-34016D03*
X52450Y-35550D03*
X51850Y-35550D03*
X51117Y-33228D03*
X51717Y-33228D03*
X52731Y-34961D03*
X53331Y-34961D03*
X52731Y-34173D03*
X53331Y-34173D03*
G54D14*
X54300Y-34100D03*
X54300Y-34700D03*
G54D15*
X53275Y-35600D03*
X54025Y-35600D03*
X51625Y-32450D03*
X52375Y-32450D03*
G54D16*
X53740Y-33898D03*
X52106Y-33228D03*
X52126Y-33583D03*
X52835Y-35630D03*
X53031Y-34606D03*
X53307Y-33740D03*
X53799Y-34232D03*
X52087Y-34370D03*
X52047Y-34724D03*
X52362Y-34055D03*
X52500Y-33543D03*
X53720Y-34606D03*
X52933Y-32480D03*
X53504Y-32520D03*
G54D10*
X53878Y-33898D02*
X53740Y-33898D01*
X53878Y-33898D02*
X54300Y-33476D01*
X51259Y-35550D02*
X51850Y-35550D01*
X51717Y-33228D02*
X52106Y-33228D01*
X52600Y-34800D02*
X52731Y-34961D01*
X51850Y-35550D02*
X52600Y-34800D01*
X52126Y-33583D02*
X52087Y-33622D01*
X52087Y-33622D02*
X50827Y-33622D01*
X50827Y-33622D02*
X50827Y-35118D01*
X50827Y-35118D02*
X51259Y-35550D01*
X52835Y-35630D02*
X52835Y-34885D01*
X52835Y-34885D02*
X52731Y-34961D01*
X52750Y-33726D02*
X52731Y-34173D01*
X53000Y-33476D02*
X52750Y-33726D01*
X52731Y-34173D02*
X52750Y-34325D01*
X52750Y-34325D02*
X53031Y-34606D01*
X54300Y-34700D02*
X54700Y-34700D01*
X53331Y-33764D02*
X53307Y-33740D01*
X53350Y-34450D02*
X53331Y-34173D01*
X53331Y-34961D02*
X53350Y-34450D01*
X53331Y-34173D02*
X53331Y-33764D01*
X54300Y-34700D02*
X54050Y-34700D01*
X54050Y-34700D02*
X53799Y-34232D01*
X54700Y-34700D02*
X55197Y-35512D01*
X53799Y-34232D02*
X53350Y-34450D01*
X51117Y-34394D02*
X52063Y-34394D01*
X51117Y-34016D02*
X51117Y-34394D01*
X52063Y-34394D02*
X52087Y-34370D01*
X51717Y-34803D02*
X51968Y-34803D01*
X51968Y-34803D02*
X52047Y-34724D01*
X51132Y-35157D02*
X51969Y-35157D01*
X51969Y-35157D02*
X52362Y-34764D01*
X51117Y-35172D02*
X51132Y-35157D01*
X52362Y-34764D02*
X52362Y-34055D01*
X51117Y-34803D02*
X51117Y-35172D01*
X51717Y-34016D02*
X52034Y-34016D01*
X52500Y-33550D02*
X52500Y-33543D01*
X52034Y-34016D02*
X52500Y-33550D01*
X53720Y-35295D02*
X54025Y-35600D01*
X53720Y-34606D02*
X53720Y-35295D01*
X52405Y-32480D02*
X52375Y-32450D01*
X52933Y-32480D02*
X52405Y-32480D01*
X52903Y-32450D02*
X52933Y-32480D01*
X52638Y-35866D02*
X53009Y-35866D01*
X52450Y-35678D02*
X52638Y-35866D01*
X53009Y-35866D02*
X53275Y-35600D01*
X52450Y-35550D02*
X52450Y-35678D01*
X51117Y-32958D02*
X51625Y-32450D01*
X51117Y-33228D02*
X51117Y-32958D01*
X54300Y-34100D02*
X54700Y-33700D01*
X54700Y-32950D02*
X55197Y-32559D01*
X54326Y-32950D02*
X54700Y-32950D01*
X54300Y-32924D02*
X54326Y-32950D01*
X53650Y-32924D02*
X54300Y-32924D01*
X54700Y-33700D02*
X54700Y-32950D01*
X53296Y-32728D02*
X53296Y-32953D01*
X53504Y-32520D02*
X53296Y-32728D01*
X53650Y-33476D02*
X53318Y-33476D01*
X53296Y-33454D02*
X53318Y-33476D01*
X53000Y-32924D02*
X53296Y-32924D01*
X53296Y-32953D02*
X53296Y-33454D01*
X53318Y-33476D02*
X53307Y-33465D01*
X53296Y-32924D02*
X53296Y-32953D01*
M02*
