G04 (created by PCBNEW (2013-07-07 BZR 4022)-stable) date 1/29/2014 11:34:29*
%MOIN*%
G04 Gerber Fmt 3.4, Leading zero omitted, Abs format*
%FSLAX34Y34*%
G01*
G70*
G90*
G04 APERTURE LIST*
%ADD10C,0.00590551*%
%ADD11C,0.0531*%
%ADD12C,0.063*%
%ADD13R,0.025X0.045*%
%ADD14R,0.045X0.025*%
%ADD15R,0.035X0.055*%
%ADD16C,0.027*%
%ADD17C,0.006*%
%ADD18C,0.005*%
G04 APERTURE END LIST*
G54D10*
G54D11*
X55197Y-32559D03*
X55197Y-33543D03*
X55197Y-34528D03*
X55197Y-35512D03*
G54D12*
X50443Y-35334D03*
X50443Y-32736D03*
G54D10*
G36*
X53108Y-32766D02*
X53206Y-33081D01*
X52793Y-33081D01*
X52891Y-32766D01*
X53108Y-32766D01*
X53108Y-32766D01*
G37*
G36*
X52891Y-33633D02*
X52793Y-33318D01*
X53206Y-33318D01*
X53108Y-33633D01*
X52891Y-33633D01*
X52891Y-33633D01*
G37*
G36*
X54408Y-32766D02*
X54506Y-33081D01*
X54093Y-33081D01*
X54191Y-32766D01*
X54408Y-32766D01*
X54408Y-32766D01*
G37*
G36*
X54191Y-33633D02*
X54093Y-33318D01*
X54506Y-33318D01*
X54408Y-33633D01*
X54191Y-33633D01*
X54191Y-33633D01*
G37*
G36*
X53758Y-32766D02*
X53856Y-33081D01*
X53443Y-33081D01*
X53541Y-32766D01*
X53758Y-32766D01*
X53758Y-32766D01*
G37*
G36*
X53541Y-33633D02*
X53443Y-33318D01*
X53856Y-33318D01*
X53758Y-33633D01*
X53541Y-33633D01*
X53541Y-33633D01*
G37*
G54D13*
X51117Y-34803D03*
X51717Y-34803D03*
X51117Y-34016D03*
X51717Y-34016D03*
X52450Y-35550D03*
X51850Y-35550D03*
X51117Y-33228D03*
X51717Y-33228D03*
X52731Y-34961D03*
X53331Y-34961D03*
X52731Y-34173D03*
X53331Y-34173D03*
G54D14*
X54300Y-34100D03*
X54300Y-34700D03*
G54D15*
X53275Y-35600D03*
X54025Y-35600D03*
X51625Y-32450D03*
X52375Y-32450D03*
G54D16*
X53740Y-33898D03*
X52106Y-33228D03*
X52126Y-33583D03*
X52835Y-35630D03*
X53031Y-34606D03*
X53307Y-33740D03*
X53799Y-34232D03*
X52087Y-34370D03*
X52047Y-34724D03*
X52362Y-34055D03*
X52500Y-33543D03*
X53720Y-34606D03*
X52933Y-32480D03*
X53504Y-32520D03*
G54D17*
X53878Y-33898D02*
X53740Y-33898D01*
X53878Y-33898D02*
X54300Y-33476D01*
X51259Y-35550D02*
X51850Y-35550D01*
X51717Y-33228D02*
X52106Y-33228D01*
X52600Y-34800D02*
X52731Y-34961D01*
X51850Y-35550D02*
X52600Y-34800D01*
X52126Y-33583D02*
X52087Y-33622D01*
X52087Y-33622D02*
X50827Y-33622D01*
X50827Y-33622D02*
X50827Y-35118D01*
X50827Y-35118D02*
X51259Y-35550D01*
X52835Y-35630D02*
X52835Y-34885D01*
X52835Y-34885D02*
X52731Y-34961D01*
X52750Y-33726D02*
X52731Y-34173D01*
X53000Y-33476D02*
X52750Y-33726D01*
X52731Y-34173D02*
X52750Y-34325D01*
X52750Y-34325D02*
X53031Y-34606D01*
X54300Y-34700D02*
X54700Y-34700D01*
X53331Y-33764D02*
X53307Y-33740D01*
X53350Y-34450D02*
X53331Y-34173D01*
X53331Y-34961D02*
X53350Y-34450D01*
X53331Y-34173D02*
X53331Y-33764D01*
X54300Y-34700D02*
X54050Y-34700D01*
X54050Y-34700D02*
X53799Y-34232D01*
X54700Y-34700D02*
X55197Y-35512D01*
X53799Y-34232D02*
X53350Y-34450D01*
X51117Y-34394D02*
X52063Y-34394D01*
X51117Y-34016D02*
X51117Y-34394D01*
X52063Y-34394D02*
X52087Y-34370D01*
X51717Y-34803D02*
X51968Y-34803D01*
X51968Y-34803D02*
X52047Y-34724D01*
X51132Y-35157D02*
X51969Y-35157D01*
X51969Y-35157D02*
X52362Y-34764D01*
X51117Y-35172D02*
X51132Y-35157D01*
X52362Y-34764D02*
X52362Y-34055D01*
X51117Y-34803D02*
X51117Y-35172D01*
X51717Y-34016D02*
X52034Y-34016D01*
X52500Y-33550D02*
X52500Y-33543D01*
X52034Y-34016D02*
X52500Y-33550D01*
X53720Y-35295D02*
X54025Y-35600D01*
X53720Y-34606D02*
X53720Y-35295D01*
X52405Y-32480D02*
X52375Y-32450D01*
X52933Y-32480D02*
X52405Y-32480D01*
X52903Y-32450D02*
X52933Y-32480D01*
X52638Y-35866D02*
X53009Y-35866D01*
X52450Y-35678D02*
X52638Y-35866D01*
X53009Y-35866D02*
X53275Y-35600D01*
X52450Y-35550D02*
X52450Y-35678D01*
X51117Y-32958D02*
X51625Y-32450D01*
X51117Y-33228D02*
X51117Y-32958D01*
X54300Y-34100D02*
X54700Y-33700D01*
X54700Y-32950D02*
X55197Y-32559D01*
X54326Y-32950D02*
X54700Y-32950D01*
X54300Y-32924D02*
X54326Y-32950D01*
X53650Y-32924D02*
X54300Y-32924D01*
X54700Y-33700D02*
X54700Y-32950D01*
X53296Y-32728D02*
X53296Y-32953D01*
X53504Y-32520D02*
X53296Y-32728D01*
X53650Y-33476D02*
X53318Y-33476D01*
X53296Y-33454D02*
X53318Y-33476D01*
X53000Y-32924D02*
X53296Y-32924D01*
X53296Y-32953D02*
X53296Y-33454D01*
X53318Y-33476D02*
X53307Y-33465D01*
X53296Y-32924D02*
X53296Y-32953D01*
G54D10*
G36*
X55727Y-36002D02*
X55566Y-36002D01*
X55566Y-35438D01*
X55566Y-35438D01*
X55566Y-34454D01*
X55510Y-34319D01*
X55406Y-34215D01*
X55270Y-34158D01*
X55123Y-34158D01*
X54988Y-34214D01*
X54884Y-34318D01*
X54827Y-34454D01*
X54827Y-34601D01*
X54883Y-34736D01*
X54987Y-34840D01*
X55123Y-34897D01*
X55270Y-34897D01*
X55405Y-34841D01*
X55509Y-34737D01*
X55566Y-34601D01*
X55566Y-34454D01*
X55566Y-35438D01*
X55510Y-35303D01*
X55509Y-35302D01*
X55454Y-35274D01*
X55434Y-35294D01*
X55434Y-35254D01*
X55406Y-35199D01*
X55270Y-35142D01*
X55123Y-35142D01*
X54988Y-35198D01*
X54987Y-35199D01*
X54959Y-35254D01*
X55197Y-35491D01*
X55434Y-35254D01*
X55434Y-35294D01*
X55217Y-35512D01*
X55454Y-35749D01*
X55509Y-35721D01*
X55566Y-35585D01*
X55566Y-35438D01*
X55566Y-36002D01*
X55434Y-36002D01*
X55434Y-35769D01*
X55197Y-35532D01*
X55176Y-35552D01*
X55176Y-35512D01*
X54939Y-35274D01*
X54884Y-35302D01*
X54827Y-35438D01*
X54827Y-35585D01*
X54883Y-35720D01*
X54884Y-35721D01*
X54939Y-35749D01*
X55176Y-35512D01*
X55176Y-35552D01*
X54959Y-35769D01*
X54987Y-35824D01*
X55123Y-35881D01*
X55270Y-35881D01*
X55405Y-35825D01*
X55406Y-35824D01*
X55434Y-35769D01*
X55434Y-36002D01*
X54628Y-36002D01*
X54628Y-34845D01*
X54628Y-34554D01*
X54612Y-34516D01*
X54583Y-34487D01*
X54545Y-34471D01*
X54504Y-34471D01*
X54340Y-34471D01*
X54314Y-34497D01*
X54314Y-34685D01*
X54602Y-34685D01*
X54628Y-34659D01*
X54628Y-34554D01*
X54628Y-34845D01*
X54628Y-34740D01*
X54602Y-34714D01*
X54314Y-34714D01*
X54314Y-34902D01*
X54340Y-34928D01*
X54504Y-34928D01*
X54545Y-34928D01*
X54583Y-34912D01*
X54612Y-34883D01*
X54628Y-34845D01*
X54628Y-36002D01*
X54303Y-36002D01*
X54303Y-35854D01*
X54303Y-35304D01*
X54287Y-35266D01*
X54285Y-35263D01*
X54285Y-34902D01*
X54285Y-34714D01*
X54285Y-34685D01*
X54285Y-34497D01*
X54259Y-34471D01*
X54095Y-34471D01*
X54054Y-34471D01*
X54016Y-34487D01*
X53987Y-34516D01*
X53971Y-34554D01*
X53971Y-34659D01*
X53997Y-34685D01*
X54285Y-34685D01*
X54285Y-34714D01*
X53997Y-34714D01*
X53971Y-34740D01*
X53971Y-34845D01*
X53987Y-34883D01*
X54016Y-34912D01*
X54054Y-34928D01*
X54095Y-34928D01*
X54259Y-34928D01*
X54285Y-34902D01*
X54285Y-35263D01*
X54258Y-35237D01*
X54220Y-35221D01*
X54179Y-35221D01*
X53853Y-35221D01*
X53853Y-34809D01*
X53855Y-34808D01*
X53922Y-34741D01*
X53958Y-34653D01*
X53958Y-34558D01*
X53922Y-34470D01*
X53855Y-34403D01*
X53767Y-34367D01*
X53672Y-34367D01*
X53584Y-34403D01*
X53552Y-34435D01*
X53559Y-34418D01*
X53559Y-34377D01*
X53559Y-34213D01*
X53533Y-34187D01*
X53345Y-34187D01*
X53345Y-34475D01*
X53371Y-34501D01*
X53476Y-34501D01*
X53510Y-34487D01*
X53481Y-34558D01*
X53481Y-34634D01*
X53476Y-34632D01*
X53371Y-34632D01*
X53345Y-34658D01*
X53345Y-34946D01*
X53533Y-34946D01*
X53559Y-34920D01*
X53559Y-34783D01*
X53584Y-34808D01*
X53586Y-34808D01*
X53586Y-35295D01*
X53596Y-35346D01*
X53625Y-35389D01*
X53746Y-35510D01*
X53746Y-35895D01*
X53762Y-35933D01*
X53791Y-35962D01*
X53829Y-35978D01*
X53870Y-35978D01*
X54220Y-35978D01*
X54258Y-35962D01*
X54287Y-35933D01*
X54303Y-35895D01*
X54303Y-35854D01*
X54303Y-36002D01*
X50040Y-36002D01*
X50040Y-35456D01*
X50087Y-35570D01*
X50205Y-35688D01*
X50359Y-35752D01*
X50525Y-35752D01*
X50679Y-35689D01*
X50797Y-35571D01*
X50861Y-35417D01*
X50861Y-35341D01*
X51164Y-35644D01*
X51207Y-35673D01*
X51259Y-35683D01*
X51621Y-35683D01*
X51621Y-35795D01*
X51637Y-35833D01*
X51666Y-35862D01*
X51704Y-35878D01*
X51745Y-35878D01*
X51995Y-35878D01*
X52033Y-35862D01*
X52062Y-35833D01*
X52078Y-35795D01*
X52078Y-35754D01*
X52078Y-35510D01*
X52221Y-35367D01*
X52221Y-35795D01*
X52237Y-35833D01*
X52266Y-35862D01*
X52304Y-35878D01*
X52345Y-35878D01*
X52461Y-35878D01*
X52543Y-35960D01*
X52586Y-35989D01*
X52638Y-35999D01*
X53009Y-35999D01*
X53060Y-35989D01*
X53060Y-35989D01*
X53077Y-35977D01*
X53077Y-35977D01*
X53079Y-35978D01*
X53120Y-35978D01*
X53470Y-35978D01*
X53508Y-35962D01*
X53537Y-35933D01*
X53553Y-35895D01*
X53553Y-35854D01*
X53553Y-35304D01*
X53537Y-35266D01*
X53530Y-35258D01*
X53543Y-35244D01*
X53559Y-35206D01*
X53559Y-35165D01*
X53559Y-35001D01*
X53533Y-34975D01*
X53345Y-34975D01*
X53345Y-34983D01*
X53316Y-34983D01*
X53316Y-34975D01*
X53128Y-34975D01*
X53102Y-35001D01*
X53102Y-35165D01*
X53102Y-35206D01*
X53108Y-35221D01*
X53079Y-35221D01*
X53041Y-35237D01*
X53012Y-35266D01*
X52996Y-35304D01*
X52996Y-35345D01*
X52996Y-35453D01*
X52970Y-35427D01*
X52968Y-35427D01*
X52968Y-34885D01*
X52965Y-34868D01*
X52964Y-34853D01*
X52960Y-34844D01*
X52959Y-34839D01*
X52959Y-34834D01*
X52983Y-34844D01*
X53078Y-34844D01*
X53102Y-34834D01*
X53102Y-34920D01*
X53128Y-34946D01*
X53316Y-34946D01*
X53316Y-34658D01*
X53290Y-34632D01*
X53269Y-34632D01*
X53269Y-34558D01*
X53246Y-34501D01*
X53290Y-34501D01*
X53316Y-34475D01*
X53316Y-34187D01*
X53316Y-34158D01*
X53316Y-33870D01*
X53290Y-33844D01*
X53185Y-33844D01*
X53147Y-33860D01*
X53118Y-33889D01*
X53102Y-33927D01*
X53102Y-33968D01*
X53102Y-34132D01*
X53128Y-34158D01*
X53316Y-34158D01*
X53316Y-34187D01*
X53128Y-34187D01*
X53102Y-34213D01*
X53102Y-34377D01*
X53078Y-34367D01*
X52983Y-34367D01*
X52982Y-34367D01*
X52959Y-34345D01*
X52959Y-33927D01*
X52943Y-33889D01*
X52914Y-33860D01*
X52878Y-33845D01*
X52881Y-33783D01*
X52927Y-33737D01*
X53227Y-33737D01*
X53265Y-33721D01*
X53294Y-33692D01*
X53310Y-33654D01*
X53310Y-33612D01*
X53310Y-33608D01*
X53318Y-33609D01*
X53339Y-33609D01*
X53339Y-33654D01*
X53355Y-33692D01*
X53384Y-33721D01*
X53422Y-33737D01*
X53464Y-33737D01*
X53563Y-33737D01*
X53537Y-33762D01*
X53501Y-33850D01*
X53501Y-33854D01*
X53476Y-33844D01*
X53371Y-33844D01*
X53345Y-33870D01*
X53345Y-34158D01*
X53533Y-34158D01*
X53559Y-34132D01*
X53559Y-34055D01*
X53604Y-34100D01*
X53692Y-34136D01*
X53787Y-34136D01*
X53875Y-34100D01*
X53942Y-34033D01*
X53954Y-34004D01*
X53971Y-33993D01*
X53971Y-33995D01*
X53971Y-34245D01*
X53987Y-34283D01*
X54016Y-34312D01*
X54054Y-34328D01*
X54095Y-34328D01*
X54545Y-34328D01*
X54583Y-34312D01*
X54612Y-34283D01*
X54628Y-34245D01*
X54628Y-34204D01*
X54628Y-33960D01*
X54794Y-33794D01*
X54794Y-33794D01*
X54794Y-33794D01*
X54823Y-33751D01*
X54833Y-33700D01*
X54833Y-33700D01*
X54833Y-33630D01*
X54883Y-33751D01*
X54987Y-33855D01*
X55123Y-33912D01*
X55270Y-33912D01*
X55405Y-33856D01*
X55509Y-33752D01*
X55566Y-33616D01*
X55566Y-33469D01*
X55510Y-33334D01*
X55406Y-33230D01*
X55270Y-33173D01*
X55123Y-33173D01*
X54988Y-33229D01*
X54884Y-33333D01*
X54833Y-33454D01*
X54833Y-33014D01*
X55005Y-32879D01*
X55123Y-32928D01*
X55270Y-32928D01*
X55405Y-32872D01*
X55509Y-32768D01*
X55566Y-32632D01*
X55566Y-32485D01*
X55510Y-32350D01*
X55406Y-32246D01*
X55270Y-32189D01*
X55123Y-32189D01*
X54988Y-32245D01*
X54884Y-32349D01*
X54827Y-32485D01*
X54827Y-32632D01*
X54842Y-32667D01*
X54653Y-32816D01*
X54610Y-32816D01*
X54610Y-32745D01*
X54594Y-32707D01*
X54565Y-32678D01*
X54527Y-32662D01*
X54485Y-32662D01*
X54072Y-32662D01*
X54034Y-32678D01*
X54005Y-32707D01*
X53989Y-32745D01*
X53989Y-32787D01*
X53989Y-32790D01*
X53960Y-32790D01*
X53960Y-32745D01*
X53944Y-32707D01*
X53915Y-32678D01*
X53877Y-32662D01*
X53835Y-32662D01*
X53698Y-32662D01*
X53706Y-32655D01*
X53742Y-32567D01*
X53742Y-32472D01*
X53706Y-32384D01*
X53639Y-32317D01*
X53551Y-32281D01*
X53456Y-32281D01*
X53368Y-32317D01*
X53301Y-32384D01*
X53265Y-32472D01*
X53265Y-32567D01*
X53265Y-32568D01*
X53201Y-32633D01*
X53181Y-32662D01*
X53087Y-32662D01*
X53135Y-32615D01*
X53171Y-32527D01*
X53171Y-32432D01*
X53135Y-32344D01*
X53068Y-32277D01*
X52980Y-32241D01*
X52885Y-32241D01*
X52797Y-32277D01*
X52730Y-32344D01*
X52730Y-32346D01*
X52653Y-32346D01*
X52653Y-32154D01*
X52637Y-32116D01*
X52608Y-32087D01*
X52570Y-32071D01*
X52529Y-32071D01*
X52179Y-32071D01*
X52141Y-32087D01*
X52112Y-32116D01*
X52096Y-32154D01*
X52096Y-32195D01*
X52096Y-32745D01*
X52112Y-32783D01*
X52141Y-32812D01*
X52179Y-32828D01*
X52220Y-32828D01*
X52570Y-32828D01*
X52608Y-32812D01*
X52637Y-32783D01*
X52653Y-32745D01*
X52653Y-32704D01*
X52653Y-32613D01*
X52729Y-32613D01*
X52730Y-32615D01*
X52778Y-32662D01*
X52772Y-32662D01*
X52734Y-32678D01*
X52705Y-32707D01*
X52689Y-32745D01*
X52689Y-32787D01*
X52689Y-33102D01*
X52705Y-33140D01*
X52734Y-33169D01*
X52772Y-33185D01*
X52814Y-33185D01*
X53162Y-33185D01*
X53162Y-33214D01*
X52772Y-33214D01*
X52734Y-33230D01*
X52705Y-33259D01*
X52689Y-33297D01*
X52689Y-33339D01*
X52689Y-33395D01*
X52635Y-33340D01*
X52547Y-33304D01*
X52452Y-33304D01*
X52364Y-33340D01*
X52297Y-33407D01*
X52294Y-33414D01*
X52276Y-33395D01*
X52308Y-33363D01*
X52344Y-33275D01*
X52344Y-33180D01*
X52308Y-33092D01*
X52241Y-33025D01*
X52153Y-32989D01*
X52058Y-32989D01*
X51970Y-33025D01*
X51945Y-33050D01*
X51945Y-32982D01*
X51929Y-32944D01*
X51900Y-32915D01*
X51862Y-32899D01*
X51821Y-32899D01*
X51571Y-32899D01*
X51533Y-32915D01*
X51504Y-32944D01*
X51488Y-32982D01*
X51488Y-33023D01*
X51488Y-33473D01*
X51494Y-33488D01*
X51339Y-33488D01*
X51345Y-33473D01*
X51345Y-33432D01*
X51345Y-32982D01*
X51329Y-32944D01*
X51324Y-32939D01*
X51435Y-32828D01*
X51470Y-32828D01*
X51820Y-32828D01*
X51858Y-32812D01*
X51887Y-32783D01*
X51903Y-32745D01*
X51903Y-32704D01*
X51903Y-32154D01*
X51887Y-32116D01*
X51858Y-32087D01*
X51820Y-32071D01*
X51779Y-32071D01*
X51429Y-32071D01*
X51391Y-32087D01*
X51362Y-32116D01*
X51346Y-32154D01*
X51346Y-32195D01*
X51346Y-32539D01*
X51022Y-32863D01*
X50998Y-32899D01*
X50971Y-32899D01*
X50933Y-32915D01*
X50904Y-32944D01*
X50888Y-32982D01*
X50888Y-33023D01*
X50888Y-33473D01*
X50894Y-33488D01*
X50827Y-33488D01*
X50775Y-33498D01*
X50732Y-33527D01*
X50703Y-33570D01*
X50693Y-33622D01*
X50693Y-34991D01*
X50680Y-34979D01*
X50526Y-34915D01*
X50360Y-34915D01*
X50206Y-34978D01*
X50088Y-35096D01*
X50040Y-35210D01*
X50040Y-32858D01*
X50087Y-32972D01*
X50205Y-33090D01*
X50359Y-33154D01*
X50525Y-33154D01*
X50679Y-33091D01*
X50797Y-32973D01*
X50861Y-32819D01*
X50861Y-32653D01*
X50798Y-32499D01*
X50680Y-32381D01*
X50526Y-32317D01*
X50360Y-32317D01*
X50206Y-32380D01*
X50088Y-32498D01*
X50040Y-32612D01*
X50040Y-32068D01*
X55727Y-32068D01*
X55727Y-36002D01*
X55727Y-36002D01*
G37*
G54D18*
X55727Y-36002D02*
X55566Y-36002D01*
X55566Y-35438D01*
X55566Y-35438D01*
X55566Y-34454D01*
X55510Y-34319D01*
X55406Y-34215D01*
X55270Y-34158D01*
X55123Y-34158D01*
X54988Y-34214D01*
X54884Y-34318D01*
X54827Y-34454D01*
X54827Y-34601D01*
X54883Y-34736D01*
X54987Y-34840D01*
X55123Y-34897D01*
X55270Y-34897D01*
X55405Y-34841D01*
X55509Y-34737D01*
X55566Y-34601D01*
X55566Y-34454D01*
X55566Y-35438D01*
X55510Y-35303D01*
X55509Y-35302D01*
X55454Y-35274D01*
X55434Y-35294D01*
X55434Y-35254D01*
X55406Y-35199D01*
X55270Y-35142D01*
X55123Y-35142D01*
X54988Y-35198D01*
X54987Y-35199D01*
X54959Y-35254D01*
X55197Y-35491D01*
X55434Y-35254D01*
X55434Y-35294D01*
X55217Y-35512D01*
X55454Y-35749D01*
X55509Y-35721D01*
X55566Y-35585D01*
X55566Y-35438D01*
X55566Y-36002D01*
X55434Y-36002D01*
X55434Y-35769D01*
X55197Y-35532D01*
X55176Y-35552D01*
X55176Y-35512D01*
X54939Y-35274D01*
X54884Y-35302D01*
X54827Y-35438D01*
X54827Y-35585D01*
X54883Y-35720D01*
X54884Y-35721D01*
X54939Y-35749D01*
X55176Y-35512D01*
X55176Y-35552D01*
X54959Y-35769D01*
X54987Y-35824D01*
X55123Y-35881D01*
X55270Y-35881D01*
X55405Y-35825D01*
X55406Y-35824D01*
X55434Y-35769D01*
X55434Y-36002D01*
X54628Y-36002D01*
X54628Y-34845D01*
X54628Y-34554D01*
X54612Y-34516D01*
X54583Y-34487D01*
X54545Y-34471D01*
X54504Y-34471D01*
X54340Y-34471D01*
X54314Y-34497D01*
X54314Y-34685D01*
X54602Y-34685D01*
X54628Y-34659D01*
X54628Y-34554D01*
X54628Y-34845D01*
X54628Y-34740D01*
X54602Y-34714D01*
X54314Y-34714D01*
X54314Y-34902D01*
X54340Y-34928D01*
X54504Y-34928D01*
X54545Y-34928D01*
X54583Y-34912D01*
X54612Y-34883D01*
X54628Y-34845D01*
X54628Y-36002D01*
X54303Y-36002D01*
X54303Y-35854D01*
X54303Y-35304D01*
X54287Y-35266D01*
X54285Y-35263D01*
X54285Y-34902D01*
X54285Y-34714D01*
X54285Y-34685D01*
X54285Y-34497D01*
X54259Y-34471D01*
X54095Y-34471D01*
X54054Y-34471D01*
X54016Y-34487D01*
X53987Y-34516D01*
X53971Y-34554D01*
X53971Y-34659D01*
X53997Y-34685D01*
X54285Y-34685D01*
X54285Y-34714D01*
X53997Y-34714D01*
X53971Y-34740D01*
X53971Y-34845D01*
X53987Y-34883D01*
X54016Y-34912D01*
X54054Y-34928D01*
X54095Y-34928D01*
X54259Y-34928D01*
X54285Y-34902D01*
X54285Y-35263D01*
X54258Y-35237D01*
X54220Y-35221D01*
X54179Y-35221D01*
X53853Y-35221D01*
X53853Y-34809D01*
X53855Y-34808D01*
X53922Y-34741D01*
X53958Y-34653D01*
X53958Y-34558D01*
X53922Y-34470D01*
X53855Y-34403D01*
X53767Y-34367D01*
X53672Y-34367D01*
X53584Y-34403D01*
X53552Y-34435D01*
X53559Y-34418D01*
X53559Y-34377D01*
X53559Y-34213D01*
X53533Y-34187D01*
X53345Y-34187D01*
X53345Y-34475D01*
X53371Y-34501D01*
X53476Y-34501D01*
X53510Y-34487D01*
X53481Y-34558D01*
X53481Y-34634D01*
X53476Y-34632D01*
X53371Y-34632D01*
X53345Y-34658D01*
X53345Y-34946D01*
X53533Y-34946D01*
X53559Y-34920D01*
X53559Y-34783D01*
X53584Y-34808D01*
X53586Y-34808D01*
X53586Y-35295D01*
X53596Y-35346D01*
X53625Y-35389D01*
X53746Y-35510D01*
X53746Y-35895D01*
X53762Y-35933D01*
X53791Y-35962D01*
X53829Y-35978D01*
X53870Y-35978D01*
X54220Y-35978D01*
X54258Y-35962D01*
X54287Y-35933D01*
X54303Y-35895D01*
X54303Y-35854D01*
X54303Y-36002D01*
X50040Y-36002D01*
X50040Y-35456D01*
X50087Y-35570D01*
X50205Y-35688D01*
X50359Y-35752D01*
X50525Y-35752D01*
X50679Y-35689D01*
X50797Y-35571D01*
X50861Y-35417D01*
X50861Y-35341D01*
X51164Y-35644D01*
X51207Y-35673D01*
X51259Y-35683D01*
X51621Y-35683D01*
X51621Y-35795D01*
X51637Y-35833D01*
X51666Y-35862D01*
X51704Y-35878D01*
X51745Y-35878D01*
X51995Y-35878D01*
X52033Y-35862D01*
X52062Y-35833D01*
X52078Y-35795D01*
X52078Y-35754D01*
X52078Y-35510D01*
X52221Y-35367D01*
X52221Y-35795D01*
X52237Y-35833D01*
X52266Y-35862D01*
X52304Y-35878D01*
X52345Y-35878D01*
X52461Y-35878D01*
X52543Y-35960D01*
X52586Y-35989D01*
X52638Y-35999D01*
X53009Y-35999D01*
X53060Y-35989D01*
X53060Y-35989D01*
X53077Y-35977D01*
X53077Y-35977D01*
X53079Y-35978D01*
X53120Y-35978D01*
X53470Y-35978D01*
X53508Y-35962D01*
X53537Y-35933D01*
X53553Y-35895D01*
X53553Y-35854D01*
X53553Y-35304D01*
X53537Y-35266D01*
X53530Y-35258D01*
X53543Y-35244D01*
X53559Y-35206D01*
X53559Y-35165D01*
X53559Y-35001D01*
X53533Y-34975D01*
X53345Y-34975D01*
X53345Y-34983D01*
X53316Y-34983D01*
X53316Y-34975D01*
X53128Y-34975D01*
X53102Y-35001D01*
X53102Y-35165D01*
X53102Y-35206D01*
X53108Y-35221D01*
X53079Y-35221D01*
X53041Y-35237D01*
X53012Y-35266D01*
X52996Y-35304D01*
X52996Y-35345D01*
X52996Y-35453D01*
X52970Y-35427D01*
X52968Y-35427D01*
X52968Y-34885D01*
X52965Y-34868D01*
X52964Y-34853D01*
X52960Y-34844D01*
X52959Y-34839D01*
X52959Y-34834D01*
X52983Y-34844D01*
X53078Y-34844D01*
X53102Y-34834D01*
X53102Y-34920D01*
X53128Y-34946D01*
X53316Y-34946D01*
X53316Y-34658D01*
X53290Y-34632D01*
X53269Y-34632D01*
X53269Y-34558D01*
X53246Y-34501D01*
X53290Y-34501D01*
X53316Y-34475D01*
X53316Y-34187D01*
X53316Y-34158D01*
X53316Y-33870D01*
X53290Y-33844D01*
X53185Y-33844D01*
X53147Y-33860D01*
X53118Y-33889D01*
X53102Y-33927D01*
X53102Y-33968D01*
X53102Y-34132D01*
X53128Y-34158D01*
X53316Y-34158D01*
X53316Y-34187D01*
X53128Y-34187D01*
X53102Y-34213D01*
X53102Y-34377D01*
X53078Y-34367D01*
X52983Y-34367D01*
X52982Y-34367D01*
X52959Y-34345D01*
X52959Y-33927D01*
X52943Y-33889D01*
X52914Y-33860D01*
X52878Y-33845D01*
X52881Y-33783D01*
X52927Y-33737D01*
X53227Y-33737D01*
X53265Y-33721D01*
X53294Y-33692D01*
X53310Y-33654D01*
X53310Y-33612D01*
X53310Y-33608D01*
X53318Y-33609D01*
X53339Y-33609D01*
X53339Y-33654D01*
X53355Y-33692D01*
X53384Y-33721D01*
X53422Y-33737D01*
X53464Y-33737D01*
X53563Y-33737D01*
X53537Y-33762D01*
X53501Y-33850D01*
X53501Y-33854D01*
X53476Y-33844D01*
X53371Y-33844D01*
X53345Y-33870D01*
X53345Y-34158D01*
X53533Y-34158D01*
X53559Y-34132D01*
X53559Y-34055D01*
X53604Y-34100D01*
X53692Y-34136D01*
X53787Y-34136D01*
X53875Y-34100D01*
X53942Y-34033D01*
X53954Y-34004D01*
X53971Y-33993D01*
X53971Y-33995D01*
X53971Y-34245D01*
X53987Y-34283D01*
X54016Y-34312D01*
X54054Y-34328D01*
X54095Y-34328D01*
X54545Y-34328D01*
X54583Y-34312D01*
X54612Y-34283D01*
X54628Y-34245D01*
X54628Y-34204D01*
X54628Y-33960D01*
X54794Y-33794D01*
X54794Y-33794D01*
X54794Y-33794D01*
X54823Y-33751D01*
X54833Y-33700D01*
X54833Y-33700D01*
X54833Y-33630D01*
X54883Y-33751D01*
X54987Y-33855D01*
X55123Y-33912D01*
X55270Y-33912D01*
X55405Y-33856D01*
X55509Y-33752D01*
X55566Y-33616D01*
X55566Y-33469D01*
X55510Y-33334D01*
X55406Y-33230D01*
X55270Y-33173D01*
X55123Y-33173D01*
X54988Y-33229D01*
X54884Y-33333D01*
X54833Y-33454D01*
X54833Y-33014D01*
X55005Y-32879D01*
X55123Y-32928D01*
X55270Y-32928D01*
X55405Y-32872D01*
X55509Y-32768D01*
X55566Y-32632D01*
X55566Y-32485D01*
X55510Y-32350D01*
X55406Y-32246D01*
X55270Y-32189D01*
X55123Y-32189D01*
X54988Y-32245D01*
X54884Y-32349D01*
X54827Y-32485D01*
X54827Y-32632D01*
X54842Y-32667D01*
X54653Y-32816D01*
X54610Y-32816D01*
X54610Y-32745D01*
X54594Y-32707D01*
X54565Y-32678D01*
X54527Y-32662D01*
X54485Y-32662D01*
X54072Y-32662D01*
X54034Y-32678D01*
X54005Y-32707D01*
X53989Y-32745D01*
X53989Y-32787D01*
X53989Y-32790D01*
X53960Y-32790D01*
X53960Y-32745D01*
X53944Y-32707D01*
X53915Y-32678D01*
X53877Y-32662D01*
X53835Y-32662D01*
X53698Y-32662D01*
X53706Y-32655D01*
X53742Y-32567D01*
X53742Y-32472D01*
X53706Y-32384D01*
X53639Y-32317D01*
X53551Y-32281D01*
X53456Y-32281D01*
X53368Y-32317D01*
X53301Y-32384D01*
X53265Y-32472D01*
X53265Y-32567D01*
X53265Y-32568D01*
X53201Y-32633D01*
X53181Y-32662D01*
X53087Y-32662D01*
X53135Y-32615D01*
X53171Y-32527D01*
X53171Y-32432D01*
X53135Y-32344D01*
X53068Y-32277D01*
X52980Y-32241D01*
X52885Y-32241D01*
X52797Y-32277D01*
X52730Y-32344D01*
X52730Y-32346D01*
X52653Y-32346D01*
X52653Y-32154D01*
X52637Y-32116D01*
X52608Y-32087D01*
X52570Y-32071D01*
X52529Y-32071D01*
X52179Y-32071D01*
X52141Y-32087D01*
X52112Y-32116D01*
X52096Y-32154D01*
X52096Y-32195D01*
X52096Y-32745D01*
X52112Y-32783D01*
X52141Y-32812D01*
X52179Y-32828D01*
X52220Y-32828D01*
X52570Y-32828D01*
X52608Y-32812D01*
X52637Y-32783D01*
X52653Y-32745D01*
X52653Y-32704D01*
X52653Y-32613D01*
X52729Y-32613D01*
X52730Y-32615D01*
X52778Y-32662D01*
X52772Y-32662D01*
X52734Y-32678D01*
X52705Y-32707D01*
X52689Y-32745D01*
X52689Y-32787D01*
X52689Y-33102D01*
X52705Y-33140D01*
X52734Y-33169D01*
X52772Y-33185D01*
X52814Y-33185D01*
X53162Y-33185D01*
X53162Y-33214D01*
X52772Y-33214D01*
X52734Y-33230D01*
X52705Y-33259D01*
X52689Y-33297D01*
X52689Y-33339D01*
X52689Y-33395D01*
X52635Y-33340D01*
X52547Y-33304D01*
X52452Y-33304D01*
X52364Y-33340D01*
X52297Y-33407D01*
X52294Y-33414D01*
X52276Y-33395D01*
X52308Y-33363D01*
X52344Y-33275D01*
X52344Y-33180D01*
X52308Y-33092D01*
X52241Y-33025D01*
X52153Y-32989D01*
X52058Y-32989D01*
X51970Y-33025D01*
X51945Y-33050D01*
X51945Y-32982D01*
X51929Y-32944D01*
X51900Y-32915D01*
X51862Y-32899D01*
X51821Y-32899D01*
X51571Y-32899D01*
X51533Y-32915D01*
X51504Y-32944D01*
X51488Y-32982D01*
X51488Y-33023D01*
X51488Y-33473D01*
X51494Y-33488D01*
X51339Y-33488D01*
X51345Y-33473D01*
X51345Y-33432D01*
X51345Y-32982D01*
X51329Y-32944D01*
X51324Y-32939D01*
X51435Y-32828D01*
X51470Y-32828D01*
X51820Y-32828D01*
X51858Y-32812D01*
X51887Y-32783D01*
X51903Y-32745D01*
X51903Y-32704D01*
X51903Y-32154D01*
X51887Y-32116D01*
X51858Y-32087D01*
X51820Y-32071D01*
X51779Y-32071D01*
X51429Y-32071D01*
X51391Y-32087D01*
X51362Y-32116D01*
X51346Y-32154D01*
X51346Y-32195D01*
X51346Y-32539D01*
X51022Y-32863D01*
X50998Y-32899D01*
X50971Y-32899D01*
X50933Y-32915D01*
X50904Y-32944D01*
X50888Y-32982D01*
X50888Y-33023D01*
X50888Y-33473D01*
X50894Y-33488D01*
X50827Y-33488D01*
X50775Y-33498D01*
X50732Y-33527D01*
X50703Y-33570D01*
X50693Y-33622D01*
X50693Y-34991D01*
X50680Y-34979D01*
X50526Y-34915D01*
X50360Y-34915D01*
X50206Y-34978D01*
X50088Y-35096D01*
X50040Y-35210D01*
X50040Y-32858D01*
X50087Y-32972D01*
X50205Y-33090D01*
X50359Y-33154D01*
X50525Y-33154D01*
X50679Y-33091D01*
X50797Y-32973D01*
X50861Y-32819D01*
X50861Y-32653D01*
X50798Y-32499D01*
X50680Y-32381D01*
X50526Y-32317D01*
X50360Y-32317D01*
X50206Y-32380D01*
X50088Y-32498D01*
X50040Y-32612D01*
X50040Y-32068D01*
X55727Y-32068D01*
X55727Y-36002D01*
M02*
