G04 (created by PCBNEW (2013-07-07 BZR 4022)-stable) date 1/29/2014 11:34:29*
%MOIN*%
G04 Gerber Fmt 3.4, Leading zero omitted, Abs format*
%FSLAX34Y34*%
G01*
G70*
G90*
G04 APERTURE LIST*
%ADD10C,0.00590551*%
%ADD11C,0.015*%
%ADD12C,0.00245*%
%ADD13C,0.0025*%
G04 APERTURE END LIST*
G54D10*
G54D11*
X52305Y-34730D02*
X52305Y-33470D01*
X52305Y-33470D02*
X54431Y-33470D01*
X54431Y-33470D02*
X54431Y-34730D01*
X54431Y-34730D02*
X52305Y-34730D01*
X54589Y-33194D02*
G75*
G03X54589Y-33194I-40J0D01*
G74*
G01*
G54D12*
X54973Y-33005D02*
X54996Y-33070D01*
X55019Y-33005D01*
X55099Y-33066D02*
X55089Y-33070D01*
X55071Y-33070D01*
X55061Y-33066D01*
X55057Y-33061D01*
X55052Y-33052D01*
X55052Y-33024D01*
X55057Y-33014D01*
X55061Y-33010D01*
X55071Y-33005D01*
X55089Y-33005D01*
X55099Y-33010D01*
X55183Y-33066D02*
X55173Y-33070D01*
X55155Y-33070D01*
X55145Y-33066D01*
X55141Y-33061D01*
X55136Y-33052D01*
X55136Y-33024D01*
X55141Y-33014D01*
X55145Y-33010D01*
X55155Y-33005D01*
X55173Y-33005D01*
X55183Y-33010D01*
X55239Y-33070D02*
X55229Y-33066D01*
X55225Y-33061D01*
X55220Y-33052D01*
X55220Y-33024D01*
X55225Y-33014D01*
X55229Y-33010D01*
X55239Y-33005D01*
X55253Y-33005D01*
X55262Y-33010D01*
X55267Y-33014D01*
X55271Y-33024D01*
X55271Y-33052D01*
X55267Y-33061D01*
X55262Y-33066D01*
X55253Y-33070D01*
X55239Y-33070D01*
X55355Y-33005D02*
X55355Y-33070D01*
X55313Y-33005D02*
X55313Y-33056D01*
X55318Y-33066D01*
X55327Y-33070D01*
X55341Y-33070D01*
X55351Y-33066D01*
X55355Y-33061D01*
X55388Y-33005D02*
X55425Y-33005D01*
X55402Y-32972D02*
X55402Y-33056D01*
X55407Y-33066D01*
X55416Y-33070D01*
X55425Y-33070D01*
G54D13*
G54D12*
X55138Y-33990D02*
X55176Y-33990D01*
X55152Y-33957D02*
X55152Y-34041D01*
X55157Y-34051D01*
X55166Y-34055D01*
X55176Y-34055D01*
X55199Y-34055D02*
X55250Y-33990D01*
X55199Y-33990D02*
X55250Y-34055D01*
G54D13*
G54D12*
X55150Y-35039D02*
X55150Y-34974D01*
X55150Y-34993D02*
X55155Y-34983D01*
X55159Y-34979D01*
X55169Y-34974D01*
X55178Y-34974D01*
X55201Y-35039D02*
X55253Y-34974D01*
X55201Y-34974D02*
X55253Y-35039D01*
G54D13*
G54D12*
X55129Y-35919D02*
X55129Y-35998D01*
X55124Y-36008D01*
X55120Y-36012D01*
X55110Y-36017D01*
X55096Y-36017D01*
X55087Y-36012D01*
X55129Y-35980D02*
X55120Y-35984D01*
X55101Y-35984D01*
X55092Y-35980D01*
X55087Y-35975D01*
X55082Y-35966D01*
X55082Y-35938D01*
X55087Y-35928D01*
X55092Y-35924D01*
X55101Y-35919D01*
X55120Y-35919D01*
X55129Y-35924D01*
X55176Y-35919D02*
X55176Y-35984D01*
X55176Y-35928D02*
X55180Y-35924D01*
X55190Y-35919D01*
X55204Y-35919D01*
X55213Y-35924D01*
X55218Y-35933D01*
X55218Y-35984D01*
X55306Y-35984D02*
X55306Y-35886D01*
X55306Y-35980D02*
X55297Y-35984D01*
X55278Y-35984D01*
X55269Y-35980D01*
X55264Y-35975D01*
X55260Y-35966D01*
X55260Y-35938D01*
X55264Y-35928D01*
X55269Y-35924D01*
X55278Y-35919D01*
X55297Y-35919D01*
X55306Y-35924D01*
G54D13*
M02*
