M48
;DRILL file {Pcbnew (2013-07-07 BZR 4022)-stable} date 1/29/2014 11:34:31
;FORMAT={-:-/ absolute / inch / decimal}
FMAT,2
INCH,TZ
T1C0.013
T2C0.032
T3C0.047
%
G90
G05
M72
T1
X5.2047Y-3.4724
X5.2087Y-3.437
X5.2106Y-3.3228
X5.2126Y-3.3583
X5.2362Y-3.4055
X5.25Y-3.3543
X5.2835Y-3.563
X5.2933Y-3.248
X5.3031Y-3.4606
X5.3307Y-3.374
X5.3504Y-3.252
X5.372Y-3.4606
X5.374Y-3.3898
X5.3799Y-3.4232
T2
X5.5197Y-3.2559
X5.5197Y-3.3543
X5.5197Y-3.4528
X5.5197Y-3.5512
T3
X5.0443Y-3.2736
X5.0443Y-3.5334
T0
M30
