G04 (created by PCBNEW (2013-07-07 BZR 4022)-stable) date 1/29/2014 11:34:29*
%MOIN*%
G04 Gerber Fmt 3.4, Leading zero omitted, Abs format*
%FSLAX34Y34*%
G01*
G70*
G90*
G04 APERTURE LIST*
%ADD10C,0.00590551*%
%ADD11C,0.00245*%
%ADD12C,0.0025*%
%ADD13C,0.0049*%
%ADD14R,0.0098X0.0394*%
%ADD15C,0.0531*%
%ADD16R,0.0531X0.0157*%
%ADD17R,0.0551X0.063*%
%ADD18R,0.0748X0.0748*%
%ADD19C,0.063*%
%ADD20C,0.027*%
%ADD21C,0.006*%
%ADD22C,0.005*%
G04 APERTURE END LIST*
G54D10*
G54D11*
X53869Y-32454D02*
X53869Y-32519D01*
X53869Y-32463D02*
X53874Y-32459D01*
X53883Y-32454D01*
X53897Y-32454D01*
X53906Y-32459D01*
X53911Y-32468D01*
X53911Y-32519D01*
X53958Y-32454D02*
X53958Y-32552D01*
X53958Y-32459D02*
X53967Y-32454D01*
X53986Y-32454D01*
X53995Y-32459D01*
X54000Y-32463D01*
X54004Y-32473D01*
X54004Y-32501D01*
X54000Y-32510D01*
X53995Y-32515D01*
X53986Y-32519D01*
X53967Y-32519D01*
X53958Y-32515D01*
X54023Y-32529D02*
X54097Y-32529D01*
X54139Y-32421D02*
X54149Y-32421D01*
X54158Y-32426D01*
X54163Y-32431D01*
X54167Y-32440D01*
X54172Y-32459D01*
X54172Y-32482D01*
X54167Y-32501D01*
X54163Y-32510D01*
X54158Y-32515D01*
X54149Y-32519D01*
X54139Y-32519D01*
X54130Y-32515D01*
X54125Y-32510D01*
X54121Y-32501D01*
X54116Y-32482D01*
X54116Y-32459D01*
X54121Y-32440D01*
X54125Y-32431D01*
X54130Y-32426D01*
X54139Y-32421D01*
X54219Y-32519D02*
X54237Y-32519D01*
X54247Y-32515D01*
X54251Y-32510D01*
X54261Y-32496D01*
X54265Y-32477D01*
X54265Y-32440D01*
X54261Y-32431D01*
X54256Y-32426D01*
X54247Y-32421D01*
X54228Y-32421D01*
X54219Y-32426D01*
X54214Y-32431D01*
X54209Y-32440D01*
X54209Y-32463D01*
X54214Y-32473D01*
X54219Y-32477D01*
X54228Y-32482D01*
X54247Y-32482D01*
X54256Y-32477D01*
X54261Y-32473D01*
X54265Y-32463D01*
X54303Y-32431D02*
X54308Y-32426D01*
X54317Y-32421D01*
X54340Y-32421D01*
X54350Y-32426D01*
X54354Y-32431D01*
X54359Y-32440D01*
X54359Y-32449D01*
X54354Y-32463D01*
X54298Y-32519D01*
X54359Y-32519D01*
X54420Y-32421D02*
X54429Y-32421D01*
X54438Y-32426D01*
X54443Y-32431D01*
X54448Y-32440D01*
X54452Y-32459D01*
X54452Y-32482D01*
X54448Y-32501D01*
X54443Y-32510D01*
X54438Y-32515D01*
X54429Y-32519D01*
X54420Y-32519D01*
X54410Y-32515D01*
X54406Y-32510D01*
X54401Y-32501D01*
X54396Y-32482D01*
X54396Y-32459D01*
X54401Y-32440D01*
X54406Y-32431D01*
X54410Y-32426D01*
X54420Y-32421D01*
X54546Y-32519D02*
X54490Y-32519D01*
X54518Y-32519D02*
X54518Y-32421D01*
X54508Y-32435D01*
X54499Y-32445D01*
X54490Y-32449D01*
X54583Y-32431D02*
X54588Y-32426D01*
X54597Y-32421D01*
X54620Y-32421D01*
X54630Y-32426D01*
X54634Y-32431D01*
X54639Y-32440D01*
X54639Y-32449D01*
X54634Y-32463D01*
X54578Y-32519D01*
X54639Y-32519D01*
G54D12*
G54D13*
X53947Y-32153D02*
X53947Y-32350D01*
X54040Y-32256D02*
X54050Y-32275D01*
X54069Y-32284D01*
X53947Y-32256D02*
X53956Y-32275D01*
X53975Y-32284D01*
X54012Y-32284D01*
X54031Y-32275D01*
X54040Y-32256D01*
X54040Y-32153D01*
X54125Y-32153D02*
X54200Y-32153D01*
X54153Y-32284D02*
X54153Y-32115D01*
X54162Y-32097D01*
X54181Y-32087D01*
X54200Y-32087D01*
X54237Y-32153D02*
X54312Y-32153D01*
X54266Y-32087D02*
X54266Y-32256D01*
X54275Y-32275D01*
X54294Y-32284D01*
X54312Y-32284D01*
X54463Y-32284D02*
X54463Y-32087D01*
X54463Y-32275D02*
X54444Y-32284D01*
X54406Y-32284D01*
X54388Y-32275D01*
X54378Y-32265D01*
X54369Y-32247D01*
X54369Y-32190D01*
X54378Y-32172D01*
X54388Y-32162D01*
X54406Y-32153D01*
X54444Y-32153D01*
X54463Y-32162D01*
X54556Y-32284D02*
X54556Y-32153D01*
X54556Y-32087D02*
X54547Y-32097D01*
X54556Y-32106D01*
X54566Y-32097D01*
X54556Y-32087D01*
X54556Y-32106D01*
G54D14*
X54250Y-33037D03*
X54000Y-33037D03*
X53750Y-33037D03*
X53500Y-33037D03*
X53250Y-33037D03*
X53000Y-33037D03*
X52750Y-33037D03*
X52500Y-33037D03*
X52500Y-35163D03*
X52750Y-35163D03*
X53000Y-35163D03*
X53250Y-35163D03*
X53500Y-35163D03*
X53750Y-35163D03*
X54000Y-35163D03*
X54250Y-35163D03*
G54D15*
X55197Y-32559D03*
X55197Y-33543D03*
X55197Y-34528D03*
X55197Y-35512D03*
G54D16*
X51496Y-33523D03*
X51496Y-33779D03*
X51496Y-34035D03*
X51496Y-34291D03*
X51496Y-34547D03*
G54D17*
X51417Y-32775D03*
X51417Y-35295D03*
G54D18*
X50443Y-34507D03*
X50443Y-33563D03*
G54D19*
X50443Y-35334D03*
X50443Y-32736D03*
G54D20*
X53740Y-33898D03*
X52106Y-33228D03*
X52126Y-33583D03*
X52835Y-35630D03*
X53031Y-34606D03*
X53307Y-33740D03*
X53799Y-34232D03*
X52087Y-34370D03*
X52047Y-34724D03*
X52362Y-34055D03*
X52500Y-33543D03*
X53720Y-34606D03*
X52933Y-32480D03*
X53504Y-32520D03*
G54D21*
X52121Y-33588D02*
X52126Y-33583D01*
X52106Y-33228D02*
X51746Y-33588D01*
X53250Y-34821D02*
X53425Y-34646D01*
X53425Y-34646D02*
X53425Y-34213D01*
X53425Y-34213D02*
X53740Y-33898D01*
X51496Y-33523D02*
X52121Y-33588D01*
X53250Y-35530D02*
X53150Y-35630D01*
X53250Y-35163D02*
X53250Y-34821D01*
X53150Y-35630D02*
X52835Y-35630D01*
X51746Y-33588D02*
X51496Y-33523D01*
X53250Y-35163D02*
X53250Y-35530D01*
X53268Y-35145D02*
X53250Y-35163D01*
X52750Y-34887D02*
X52750Y-35163D01*
X53031Y-34606D02*
X52750Y-34887D01*
X53307Y-33740D02*
X53250Y-33683D01*
X50443Y-34507D02*
X51235Y-35360D01*
X51235Y-35360D02*
X51417Y-35295D01*
X50443Y-33563D02*
X50443Y-34507D01*
X50443Y-33563D02*
X51235Y-32840D01*
X51235Y-32840D02*
X51417Y-32775D01*
X53250Y-33037D02*
X53250Y-32266D01*
X52017Y-32244D02*
X51417Y-32775D01*
X53228Y-32244D02*
X52017Y-32244D01*
X53250Y-32266D02*
X53228Y-32244D01*
X53799Y-34232D02*
X54000Y-34650D01*
X53250Y-33683D02*
X53250Y-33037D01*
X51496Y-34547D02*
X51500Y-35281D01*
X51500Y-35281D02*
X51417Y-35295D01*
X54000Y-34650D02*
X54000Y-35163D01*
X52087Y-34370D02*
X51817Y-34100D01*
X51817Y-34100D02*
X51496Y-34035D01*
X52047Y-34724D02*
X52486Y-35163D01*
X52486Y-35163D02*
X52500Y-35163D01*
X52362Y-34055D02*
X52151Y-33844D01*
X52151Y-33844D02*
X51496Y-33779D01*
X52500Y-33543D02*
X52500Y-33037D01*
X53750Y-35163D02*
X53750Y-34636D01*
X53750Y-34636D02*
X53720Y-34606D01*
X52750Y-32663D02*
X52750Y-33037D01*
X52933Y-32480D02*
X52750Y-32663D01*
X53819Y-33622D02*
X54134Y-33622D01*
X53500Y-33037D02*
X53500Y-33303D01*
X54134Y-33622D02*
X54962Y-34450D01*
X53500Y-33303D02*
X53819Y-33622D01*
X54962Y-34450D02*
X55197Y-34528D01*
X54250Y-33037D02*
X54250Y-33450D01*
X54250Y-33450D02*
X54500Y-33700D01*
X54500Y-33700D02*
X55197Y-33543D01*
X53750Y-33037D02*
X53750Y-32766D01*
X53750Y-32766D02*
X53504Y-32520D01*
G54D10*
G36*
X55727Y-36002D02*
X55566Y-36002D01*
X55566Y-35438D01*
X55510Y-35303D01*
X55509Y-35302D01*
X55454Y-35274D01*
X55434Y-35294D01*
X55434Y-35254D01*
X55406Y-35199D01*
X55270Y-35142D01*
X55123Y-35142D01*
X54988Y-35198D01*
X54987Y-35199D01*
X54959Y-35254D01*
X55197Y-35491D01*
X55434Y-35254D01*
X55434Y-35294D01*
X55217Y-35512D01*
X55454Y-35749D01*
X55509Y-35721D01*
X55566Y-35585D01*
X55566Y-35438D01*
X55566Y-36002D01*
X55434Y-36002D01*
X55434Y-35769D01*
X55197Y-35532D01*
X55176Y-35552D01*
X55176Y-35512D01*
X54939Y-35274D01*
X54884Y-35302D01*
X54827Y-35438D01*
X54827Y-35585D01*
X54883Y-35720D01*
X54884Y-35721D01*
X54939Y-35749D01*
X55176Y-35512D01*
X55176Y-35552D01*
X54959Y-35769D01*
X54987Y-35824D01*
X55123Y-35881D01*
X55270Y-35881D01*
X55405Y-35825D01*
X55406Y-35824D01*
X55434Y-35769D01*
X55434Y-36002D01*
X54402Y-36002D01*
X54402Y-35339D01*
X54402Y-34945D01*
X54386Y-34907D01*
X54357Y-34878D01*
X54319Y-34862D01*
X54278Y-34862D01*
X54180Y-34862D01*
X54142Y-34878D01*
X54125Y-34895D01*
X54107Y-34878D01*
X54069Y-34862D01*
X54040Y-34862D01*
X54014Y-34888D01*
X54014Y-35148D01*
X54022Y-35148D01*
X54022Y-35177D01*
X54014Y-35177D01*
X54014Y-35437D01*
X54040Y-35463D01*
X54069Y-35463D01*
X54107Y-35447D01*
X54125Y-35430D01*
X54142Y-35447D01*
X54180Y-35463D01*
X54221Y-35463D01*
X54319Y-35463D01*
X54357Y-35447D01*
X54386Y-35418D01*
X54402Y-35380D01*
X54402Y-35339D01*
X54402Y-36002D01*
X51796Y-36002D01*
X51796Y-35630D01*
X51796Y-34959D01*
X51780Y-34921D01*
X51751Y-34892D01*
X51713Y-34876D01*
X51671Y-34876D01*
X51481Y-34876D01*
X51481Y-34703D01*
X51481Y-34561D01*
X51152Y-34561D01*
X51126Y-34587D01*
X51126Y-34646D01*
X51142Y-34684D01*
X51171Y-34713D01*
X51209Y-34729D01*
X51251Y-34729D01*
X51455Y-34729D01*
X51481Y-34703D01*
X51481Y-34876D01*
X51457Y-34876D01*
X51431Y-34902D01*
X51431Y-35280D01*
X51770Y-35280D01*
X51796Y-35254D01*
X51796Y-34959D01*
X51796Y-35630D01*
X51796Y-35335D01*
X51770Y-35309D01*
X51431Y-35309D01*
X51431Y-35687D01*
X51457Y-35713D01*
X51671Y-35713D01*
X51713Y-35713D01*
X51751Y-35697D01*
X51780Y-35668D01*
X51796Y-35630D01*
X51796Y-36002D01*
X51402Y-36002D01*
X51402Y-35687D01*
X51402Y-35309D01*
X51402Y-35280D01*
X51402Y-34902D01*
X51376Y-34876D01*
X51162Y-34876D01*
X51120Y-34876D01*
X51082Y-34892D01*
X51053Y-34921D01*
X51037Y-34959D01*
X51037Y-35254D01*
X51063Y-35280D01*
X51402Y-35280D01*
X51402Y-35309D01*
X51063Y-35309D01*
X51037Y-35335D01*
X51037Y-35630D01*
X51053Y-35668D01*
X51082Y-35697D01*
X51120Y-35713D01*
X51162Y-35713D01*
X51376Y-35713D01*
X51402Y-35687D01*
X51402Y-36002D01*
X50040Y-36002D01*
X50040Y-35456D01*
X50087Y-35570D01*
X50205Y-35688D01*
X50359Y-35752D01*
X50525Y-35752D01*
X50679Y-35689D01*
X50797Y-35571D01*
X50861Y-35417D01*
X50861Y-35251D01*
X50798Y-35097D01*
X50686Y-34984D01*
X50796Y-34984D01*
X50837Y-34984D01*
X50875Y-34968D01*
X50904Y-34939D01*
X50920Y-34901D01*
X50920Y-34112D01*
X50904Y-34074D01*
X50875Y-34045D01*
X50851Y-34035D01*
X50875Y-34024D01*
X50904Y-33995D01*
X50920Y-33957D01*
X50920Y-33603D01*
X50894Y-33577D01*
X50457Y-33577D01*
X50457Y-34014D01*
X50477Y-34035D01*
X50457Y-34055D01*
X50457Y-34492D01*
X50894Y-34492D01*
X50920Y-34466D01*
X50920Y-34112D01*
X50920Y-34901D01*
X50920Y-34547D01*
X50894Y-34521D01*
X50457Y-34521D01*
X50457Y-34529D01*
X50428Y-34529D01*
X50428Y-34521D01*
X50420Y-34521D01*
X50420Y-34492D01*
X50428Y-34492D01*
X50428Y-34055D01*
X50408Y-34035D01*
X50428Y-34014D01*
X50428Y-33577D01*
X50420Y-33577D01*
X50420Y-33548D01*
X50428Y-33548D01*
X50428Y-33540D01*
X50457Y-33540D01*
X50457Y-33548D01*
X50894Y-33548D01*
X50920Y-33522D01*
X50920Y-33168D01*
X50904Y-33130D01*
X50875Y-33101D01*
X50837Y-33085D01*
X50796Y-33085D01*
X50685Y-33085D01*
X50797Y-32973D01*
X50861Y-32819D01*
X50861Y-32653D01*
X50798Y-32499D01*
X50680Y-32381D01*
X50526Y-32317D01*
X50360Y-32317D01*
X50206Y-32380D01*
X50088Y-32498D01*
X50040Y-32612D01*
X50040Y-32068D01*
X53771Y-32068D01*
X53771Y-32270D01*
X53729Y-32270D01*
X53729Y-32441D01*
X53706Y-32384D01*
X53639Y-32317D01*
X53551Y-32281D01*
X53456Y-32281D01*
X53368Y-32317D01*
X53301Y-32384D01*
X53265Y-32472D01*
X53265Y-32567D01*
X53301Y-32655D01*
X53368Y-32722D01*
X53416Y-32742D01*
X53392Y-32752D01*
X53375Y-32769D01*
X53357Y-32752D01*
X53319Y-32736D01*
X53290Y-32736D01*
X53264Y-32762D01*
X53264Y-33022D01*
X53272Y-33022D01*
X53272Y-33051D01*
X53264Y-33051D01*
X53264Y-33311D01*
X53290Y-33337D01*
X53319Y-33337D01*
X53357Y-33321D01*
X53367Y-33311D01*
X53376Y-33354D01*
X53405Y-33397D01*
X53674Y-33666D01*
X53604Y-33695D01*
X53537Y-33762D01*
X53501Y-33850D01*
X53501Y-33945D01*
X53501Y-33946D01*
X53330Y-34118D01*
X53301Y-34161D01*
X53291Y-34213D01*
X53291Y-34590D01*
X53269Y-34612D01*
X53269Y-34558D01*
X53233Y-34470D01*
X53166Y-34403D01*
X53078Y-34367D01*
X52983Y-34367D01*
X52895Y-34403D01*
X52828Y-34470D01*
X52792Y-34558D01*
X52792Y-34653D01*
X52792Y-34654D01*
X52655Y-34792D01*
X52626Y-34835D01*
X52616Y-34886D01*
X52607Y-34878D01*
X52569Y-34862D01*
X52528Y-34862D01*
X52430Y-34862D01*
X52392Y-34878D01*
X52391Y-34879D01*
X52285Y-34773D01*
X52285Y-34771D01*
X52285Y-34676D01*
X52249Y-34588D01*
X52227Y-34566D01*
X52289Y-34505D01*
X52325Y-34417D01*
X52325Y-34322D01*
X52313Y-34293D01*
X52314Y-34293D01*
X52409Y-34293D01*
X52497Y-34257D01*
X52564Y-34190D01*
X52600Y-34102D01*
X52600Y-34007D01*
X52564Y-33919D01*
X52497Y-33852D01*
X52409Y-33816D01*
X52314Y-33816D01*
X52313Y-33816D01*
X52271Y-33775D01*
X52328Y-33718D01*
X52331Y-33711D01*
X52364Y-33745D01*
X52452Y-33781D01*
X52547Y-33781D01*
X52635Y-33745D01*
X52702Y-33678D01*
X52738Y-33590D01*
X52738Y-33495D01*
X52702Y-33407D01*
X52635Y-33340D01*
X52633Y-33340D01*
X52633Y-33313D01*
X52642Y-33321D01*
X52680Y-33337D01*
X52721Y-33337D01*
X52819Y-33337D01*
X52857Y-33321D01*
X52875Y-33304D01*
X52892Y-33321D01*
X52930Y-33337D01*
X52971Y-33337D01*
X53069Y-33337D01*
X53107Y-33321D01*
X53125Y-33304D01*
X53142Y-33321D01*
X53180Y-33337D01*
X53209Y-33337D01*
X53235Y-33311D01*
X53235Y-33051D01*
X53227Y-33051D01*
X53227Y-33022D01*
X53235Y-33022D01*
X53235Y-32762D01*
X53209Y-32736D01*
X53180Y-32736D01*
X53142Y-32752D01*
X53124Y-32769D01*
X53107Y-32752D01*
X53069Y-32736D01*
X53028Y-32736D01*
X52930Y-32736D01*
X52892Y-32752D01*
X52883Y-32760D01*
X52883Y-32718D01*
X52883Y-32718D01*
X52885Y-32718D01*
X52980Y-32718D01*
X53068Y-32682D01*
X53135Y-32615D01*
X53171Y-32527D01*
X53171Y-32432D01*
X53135Y-32344D01*
X53068Y-32277D01*
X52980Y-32241D01*
X52885Y-32241D01*
X52797Y-32277D01*
X52730Y-32344D01*
X52694Y-32432D01*
X52694Y-32527D01*
X52694Y-32528D01*
X52655Y-32568D01*
X52626Y-32611D01*
X52616Y-32663D01*
X52616Y-32760D01*
X52607Y-32752D01*
X52569Y-32736D01*
X52528Y-32736D01*
X52430Y-32736D01*
X52392Y-32752D01*
X52363Y-32781D01*
X52347Y-32819D01*
X52347Y-32860D01*
X52347Y-33254D01*
X52363Y-33292D01*
X52366Y-33295D01*
X52366Y-33339D01*
X52364Y-33340D01*
X52297Y-33407D01*
X52294Y-33414D01*
X52276Y-33395D01*
X52308Y-33363D01*
X52344Y-33275D01*
X52344Y-33180D01*
X52308Y-33092D01*
X52241Y-33025D01*
X52153Y-32989D01*
X52058Y-32989D01*
X51970Y-33025D01*
X51903Y-33092D01*
X51867Y-33180D01*
X51867Y-33275D01*
X51867Y-33276D01*
X51797Y-33347D01*
X51796Y-33346D01*
X51796Y-33110D01*
X51796Y-32439D01*
X51780Y-32401D01*
X51751Y-32372D01*
X51713Y-32356D01*
X51671Y-32356D01*
X51457Y-32356D01*
X51431Y-32382D01*
X51431Y-32760D01*
X51770Y-32760D01*
X51796Y-32734D01*
X51796Y-32439D01*
X51796Y-33110D01*
X51796Y-32815D01*
X51770Y-32789D01*
X51431Y-32789D01*
X51431Y-33167D01*
X51457Y-33193D01*
X51671Y-33193D01*
X51713Y-33193D01*
X51751Y-33177D01*
X51780Y-33148D01*
X51796Y-33110D01*
X51796Y-33346D01*
X51782Y-33340D01*
X51740Y-33340D01*
X51402Y-33340D01*
X51402Y-33167D01*
X51402Y-32789D01*
X51402Y-32760D01*
X51402Y-32382D01*
X51376Y-32356D01*
X51162Y-32356D01*
X51120Y-32356D01*
X51082Y-32372D01*
X51053Y-32401D01*
X51037Y-32439D01*
X51037Y-32734D01*
X51063Y-32760D01*
X51402Y-32760D01*
X51402Y-32789D01*
X51063Y-32789D01*
X51037Y-32815D01*
X51037Y-33110D01*
X51053Y-33148D01*
X51082Y-33177D01*
X51120Y-33193D01*
X51162Y-33193D01*
X51376Y-33193D01*
X51402Y-33167D01*
X51402Y-33340D01*
X51209Y-33340D01*
X51171Y-33356D01*
X51142Y-33385D01*
X51126Y-33423D01*
X51126Y-33465D01*
X51126Y-33622D01*
X51138Y-33651D01*
X51126Y-33679D01*
X51126Y-33721D01*
X51126Y-33878D01*
X51138Y-33907D01*
X51126Y-33935D01*
X51126Y-33977D01*
X51126Y-34134D01*
X51138Y-34163D01*
X51126Y-34191D01*
X51126Y-34233D01*
X51126Y-34390D01*
X51138Y-34419D01*
X51126Y-34447D01*
X51126Y-34506D01*
X51152Y-34532D01*
X51481Y-34532D01*
X51481Y-34524D01*
X51510Y-34524D01*
X51510Y-34532D01*
X51839Y-34532D01*
X51865Y-34506D01*
X51865Y-34458D01*
X51884Y-34505D01*
X51906Y-34527D01*
X51855Y-34577D01*
X51839Y-34561D01*
X51510Y-34561D01*
X51510Y-34703D01*
X51536Y-34729D01*
X51740Y-34729D01*
X51782Y-34729D01*
X51808Y-34718D01*
X51808Y-34771D01*
X51844Y-34859D01*
X51911Y-34926D01*
X51999Y-34962D01*
X52094Y-34962D01*
X52095Y-34962D01*
X52347Y-35213D01*
X52347Y-35380D01*
X52363Y-35418D01*
X52392Y-35447D01*
X52430Y-35463D01*
X52471Y-35463D01*
X52569Y-35463D01*
X52607Y-35447D01*
X52625Y-35430D01*
X52642Y-35447D01*
X52668Y-35458D01*
X52632Y-35494D01*
X52596Y-35582D01*
X52596Y-35677D01*
X52632Y-35765D01*
X52699Y-35832D01*
X52787Y-35868D01*
X52882Y-35868D01*
X52970Y-35832D01*
X53037Y-35765D01*
X53037Y-35763D01*
X53150Y-35763D01*
X53201Y-35753D01*
X53201Y-35753D01*
X53244Y-35724D01*
X53344Y-35624D01*
X53373Y-35581D01*
X53383Y-35530D01*
X53383Y-35439D01*
X53392Y-35447D01*
X53430Y-35463D01*
X53471Y-35463D01*
X53569Y-35463D01*
X53607Y-35447D01*
X53625Y-35430D01*
X53642Y-35447D01*
X53680Y-35463D01*
X53721Y-35463D01*
X53819Y-35463D01*
X53857Y-35447D01*
X53875Y-35430D01*
X53892Y-35447D01*
X53930Y-35463D01*
X53959Y-35463D01*
X53985Y-35437D01*
X53985Y-35177D01*
X53977Y-35177D01*
X53977Y-35148D01*
X53985Y-35148D01*
X53985Y-34888D01*
X53959Y-34862D01*
X53930Y-34862D01*
X53892Y-34878D01*
X53883Y-34886D01*
X53883Y-34779D01*
X53922Y-34741D01*
X53958Y-34653D01*
X53958Y-34558D01*
X53922Y-34470D01*
X53855Y-34403D01*
X53767Y-34367D01*
X53672Y-34367D01*
X53584Y-34403D01*
X53558Y-34429D01*
X53558Y-34268D01*
X53690Y-34136D01*
X53692Y-34136D01*
X53787Y-34136D01*
X53875Y-34100D01*
X53942Y-34033D01*
X53978Y-33945D01*
X53978Y-33850D01*
X53942Y-33762D01*
X53935Y-33755D01*
X54078Y-33755D01*
X54827Y-34504D01*
X54827Y-34601D01*
X54883Y-34736D01*
X54987Y-34840D01*
X55123Y-34897D01*
X55270Y-34897D01*
X55405Y-34841D01*
X55509Y-34737D01*
X55566Y-34601D01*
X55566Y-34454D01*
X55510Y-34319D01*
X55406Y-34215D01*
X55270Y-34158D01*
X55123Y-34158D01*
X54988Y-34214D01*
X54951Y-34250D01*
X54531Y-33830D01*
X54883Y-33750D01*
X54883Y-33751D01*
X54987Y-33855D01*
X55123Y-33912D01*
X55270Y-33912D01*
X55405Y-33856D01*
X55509Y-33752D01*
X55566Y-33616D01*
X55566Y-33469D01*
X55566Y-32485D01*
X55510Y-32350D01*
X55406Y-32246D01*
X55270Y-32189D01*
X55123Y-32189D01*
X54988Y-32245D01*
X54884Y-32349D01*
X54827Y-32485D01*
X54827Y-32632D01*
X54883Y-32767D01*
X54987Y-32871D01*
X55123Y-32928D01*
X55270Y-32928D01*
X55405Y-32872D01*
X55509Y-32768D01*
X55566Y-32632D01*
X55566Y-32485D01*
X55566Y-33469D01*
X55510Y-33334D01*
X55406Y-33230D01*
X55270Y-33173D01*
X55123Y-33173D01*
X54988Y-33229D01*
X54884Y-33333D01*
X54827Y-33469D01*
X54827Y-33489D01*
X54542Y-33553D01*
X54383Y-33394D01*
X54383Y-33295D01*
X54386Y-33292D01*
X54402Y-33254D01*
X54402Y-33213D01*
X54402Y-32819D01*
X54386Y-32781D01*
X54357Y-32752D01*
X54319Y-32736D01*
X54278Y-32736D01*
X54180Y-32736D01*
X54142Y-32752D01*
X54124Y-32769D01*
X54107Y-32752D01*
X54069Y-32736D01*
X54028Y-32736D01*
X53930Y-32736D01*
X53892Y-32752D01*
X53882Y-32761D01*
X53873Y-32714D01*
X53873Y-32714D01*
X53844Y-32671D01*
X53837Y-32664D01*
X54774Y-32664D01*
X54774Y-32270D01*
X54732Y-32270D01*
X54732Y-32068D01*
X55727Y-32068D01*
X55727Y-36002D01*
X55727Y-36002D01*
G37*
G54D22*
X55727Y-36002D02*
X55566Y-36002D01*
X55566Y-35438D01*
X55510Y-35303D01*
X55509Y-35302D01*
X55454Y-35274D01*
X55434Y-35294D01*
X55434Y-35254D01*
X55406Y-35199D01*
X55270Y-35142D01*
X55123Y-35142D01*
X54988Y-35198D01*
X54987Y-35199D01*
X54959Y-35254D01*
X55197Y-35491D01*
X55434Y-35254D01*
X55434Y-35294D01*
X55217Y-35512D01*
X55454Y-35749D01*
X55509Y-35721D01*
X55566Y-35585D01*
X55566Y-35438D01*
X55566Y-36002D01*
X55434Y-36002D01*
X55434Y-35769D01*
X55197Y-35532D01*
X55176Y-35552D01*
X55176Y-35512D01*
X54939Y-35274D01*
X54884Y-35302D01*
X54827Y-35438D01*
X54827Y-35585D01*
X54883Y-35720D01*
X54884Y-35721D01*
X54939Y-35749D01*
X55176Y-35512D01*
X55176Y-35552D01*
X54959Y-35769D01*
X54987Y-35824D01*
X55123Y-35881D01*
X55270Y-35881D01*
X55405Y-35825D01*
X55406Y-35824D01*
X55434Y-35769D01*
X55434Y-36002D01*
X54402Y-36002D01*
X54402Y-35339D01*
X54402Y-34945D01*
X54386Y-34907D01*
X54357Y-34878D01*
X54319Y-34862D01*
X54278Y-34862D01*
X54180Y-34862D01*
X54142Y-34878D01*
X54125Y-34895D01*
X54107Y-34878D01*
X54069Y-34862D01*
X54040Y-34862D01*
X54014Y-34888D01*
X54014Y-35148D01*
X54022Y-35148D01*
X54022Y-35177D01*
X54014Y-35177D01*
X54014Y-35437D01*
X54040Y-35463D01*
X54069Y-35463D01*
X54107Y-35447D01*
X54125Y-35430D01*
X54142Y-35447D01*
X54180Y-35463D01*
X54221Y-35463D01*
X54319Y-35463D01*
X54357Y-35447D01*
X54386Y-35418D01*
X54402Y-35380D01*
X54402Y-35339D01*
X54402Y-36002D01*
X51796Y-36002D01*
X51796Y-35630D01*
X51796Y-34959D01*
X51780Y-34921D01*
X51751Y-34892D01*
X51713Y-34876D01*
X51671Y-34876D01*
X51481Y-34876D01*
X51481Y-34703D01*
X51481Y-34561D01*
X51152Y-34561D01*
X51126Y-34587D01*
X51126Y-34646D01*
X51142Y-34684D01*
X51171Y-34713D01*
X51209Y-34729D01*
X51251Y-34729D01*
X51455Y-34729D01*
X51481Y-34703D01*
X51481Y-34876D01*
X51457Y-34876D01*
X51431Y-34902D01*
X51431Y-35280D01*
X51770Y-35280D01*
X51796Y-35254D01*
X51796Y-34959D01*
X51796Y-35630D01*
X51796Y-35335D01*
X51770Y-35309D01*
X51431Y-35309D01*
X51431Y-35687D01*
X51457Y-35713D01*
X51671Y-35713D01*
X51713Y-35713D01*
X51751Y-35697D01*
X51780Y-35668D01*
X51796Y-35630D01*
X51796Y-36002D01*
X51402Y-36002D01*
X51402Y-35687D01*
X51402Y-35309D01*
X51402Y-35280D01*
X51402Y-34902D01*
X51376Y-34876D01*
X51162Y-34876D01*
X51120Y-34876D01*
X51082Y-34892D01*
X51053Y-34921D01*
X51037Y-34959D01*
X51037Y-35254D01*
X51063Y-35280D01*
X51402Y-35280D01*
X51402Y-35309D01*
X51063Y-35309D01*
X51037Y-35335D01*
X51037Y-35630D01*
X51053Y-35668D01*
X51082Y-35697D01*
X51120Y-35713D01*
X51162Y-35713D01*
X51376Y-35713D01*
X51402Y-35687D01*
X51402Y-36002D01*
X50040Y-36002D01*
X50040Y-35456D01*
X50087Y-35570D01*
X50205Y-35688D01*
X50359Y-35752D01*
X50525Y-35752D01*
X50679Y-35689D01*
X50797Y-35571D01*
X50861Y-35417D01*
X50861Y-35251D01*
X50798Y-35097D01*
X50686Y-34984D01*
X50796Y-34984D01*
X50837Y-34984D01*
X50875Y-34968D01*
X50904Y-34939D01*
X50920Y-34901D01*
X50920Y-34112D01*
X50904Y-34074D01*
X50875Y-34045D01*
X50851Y-34035D01*
X50875Y-34024D01*
X50904Y-33995D01*
X50920Y-33957D01*
X50920Y-33603D01*
X50894Y-33577D01*
X50457Y-33577D01*
X50457Y-34014D01*
X50477Y-34035D01*
X50457Y-34055D01*
X50457Y-34492D01*
X50894Y-34492D01*
X50920Y-34466D01*
X50920Y-34112D01*
X50920Y-34901D01*
X50920Y-34547D01*
X50894Y-34521D01*
X50457Y-34521D01*
X50457Y-34529D01*
X50428Y-34529D01*
X50428Y-34521D01*
X50420Y-34521D01*
X50420Y-34492D01*
X50428Y-34492D01*
X50428Y-34055D01*
X50408Y-34035D01*
X50428Y-34014D01*
X50428Y-33577D01*
X50420Y-33577D01*
X50420Y-33548D01*
X50428Y-33548D01*
X50428Y-33540D01*
X50457Y-33540D01*
X50457Y-33548D01*
X50894Y-33548D01*
X50920Y-33522D01*
X50920Y-33168D01*
X50904Y-33130D01*
X50875Y-33101D01*
X50837Y-33085D01*
X50796Y-33085D01*
X50685Y-33085D01*
X50797Y-32973D01*
X50861Y-32819D01*
X50861Y-32653D01*
X50798Y-32499D01*
X50680Y-32381D01*
X50526Y-32317D01*
X50360Y-32317D01*
X50206Y-32380D01*
X50088Y-32498D01*
X50040Y-32612D01*
X50040Y-32068D01*
X53771Y-32068D01*
X53771Y-32270D01*
X53729Y-32270D01*
X53729Y-32441D01*
X53706Y-32384D01*
X53639Y-32317D01*
X53551Y-32281D01*
X53456Y-32281D01*
X53368Y-32317D01*
X53301Y-32384D01*
X53265Y-32472D01*
X53265Y-32567D01*
X53301Y-32655D01*
X53368Y-32722D01*
X53416Y-32742D01*
X53392Y-32752D01*
X53375Y-32769D01*
X53357Y-32752D01*
X53319Y-32736D01*
X53290Y-32736D01*
X53264Y-32762D01*
X53264Y-33022D01*
X53272Y-33022D01*
X53272Y-33051D01*
X53264Y-33051D01*
X53264Y-33311D01*
X53290Y-33337D01*
X53319Y-33337D01*
X53357Y-33321D01*
X53367Y-33311D01*
X53376Y-33354D01*
X53405Y-33397D01*
X53674Y-33666D01*
X53604Y-33695D01*
X53537Y-33762D01*
X53501Y-33850D01*
X53501Y-33945D01*
X53501Y-33946D01*
X53330Y-34118D01*
X53301Y-34161D01*
X53291Y-34213D01*
X53291Y-34590D01*
X53269Y-34612D01*
X53269Y-34558D01*
X53233Y-34470D01*
X53166Y-34403D01*
X53078Y-34367D01*
X52983Y-34367D01*
X52895Y-34403D01*
X52828Y-34470D01*
X52792Y-34558D01*
X52792Y-34653D01*
X52792Y-34654D01*
X52655Y-34792D01*
X52626Y-34835D01*
X52616Y-34886D01*
X52607Y-34878D01*
X52569Y-34862D01*
X52528Y-34862D01*
X52430Y-34862D01*
X52392Y-34878D01*
X52391Y-34879D01*
X52285Y-34773D01*
X52285Y-34771D01*
X52285Y-34676D01*
X52249Y-34588D01*
X52227Y-34566D01*
X52289Y-34505D01*
X52325Y-34417D01*
X52325Y-34322D01*
X52313Y-34293D01*
X52314Y-34293D01*
X52409Y-34293D01*
X52497Y-34257D01*
X52564Y-34190D01*
X52600Y-34102D01*
X52600Y-34007D01*
X52564Y-33919D01*
X52497Y-33852D01*
X52409Y-33816D01*
X52314Y-33816D01*
X52313Y-33816D01*
X52271Y-33775D01*
X52328Y-33718D01*
X52331Y-33711D01*
X52364Y-33745D01*
X52452Y-33781D01*
X52547Y-33781D01*
X52635Y-33745D01*
X52702Y-33678D01*
X52738Y-33590D01*
X52738Y-33495D01*
X52702Y-33407D01*
X52635Y-33340D01*
X52633Y-33340D01*
X52633Y-33313D01*
X52642Y-33321D01*
X52680Y-33337D01*
X52721Y-33337D01*
X52819Y-33337D01*
X52857Y-33321D01*
X52875Y-33304D01*
X52892Y-33321D01*
X52930Y-33337D01*
X52971Y-33337D01*
X53069Y-33337D01*
X53107Y-33321D01*
X53125Y-33304D01*
X53142Y-33321D01*
X53180Y-33337D01*
X53209Y-33337D01*
X53235Y-33311D01*
X53235Y-33051D01*
X53227Y-33051D01*
X53227Y-33022D01*
X53235Y-33022D01*
X53235Y-32762D01*
X53209Y-32736D01*
X53180Y-32736D01*
X53142Y-32752D01*
X53124Y-32769D01*
X53107Y-32752D01*
X53069Y-32736D01*
X53028Y-32736D01*
X52930Y-32736D01*
X52892Y-32752D01*
X52883Y-32760D01*
X52883Y-32718D01*
X52883Y-32718D01*
X52885Y-32718D01*
X52980Y-32718D01*
X53068Y-32682D01*
X53135Y-32615D01*
X53171Y-32527D01*
X53171Y-32432D01*
X53135Y-32344D01*
X53068Y-32277D01*
X52980Y-32241D01*
X52885Y-32241D01*
X52797Y-32277D01*
X52730Y-32344D01*
X52694Y-32432D01*
X52694Y-32527D01*
X52694Y-32528D01*
X52655Y-32568D01*
X52626Y-32611D01*
X52616Y-32663D01*
X52616Y-32760D01*
X52607Y-32752D01*
X52569Y-32736D01*
X52528Y-32736D01*
X52430Y-32736D01*
X52392Y-32752D01*
X52363Y-32781D01*
X52347Y-32819D01*
X52347Y-32860D01*
X52347Y-33254D01*
X52363Y-33292D01*
X52366Y-33295D01*
X52366Y-33339D01*
X52364Y-33340D01*
X52297Y-33407D01*
X52294Y-33414D01*
X52276Y-33395D01*
X52308Y-33363D01*
X52344Y-33275D01*
X52344Y-33180D01*
X52308Y-33092D01*
X52241Y-33025D01*
X52153Y-32989D01*
X52058Y-32989D01*
X51970Y-33025D01*
X51903Y-33092D01*
X51867Y-33180D01*
X51867Y-33275D01*
X51867Y-33276D01*
X51797Y-33347D01*
X51796Y-33346D01*
X51796Y-33110D01*
X51796Y-32439D01*
X51780Y-32401D01*
X51751Y-32372D01*
X51713Y-32356D01*
X51671Y-32356D01*
X51457Y-32356D01*
X51431Y-32382D01*
X51431Y-32760D01*
X51770Y-32760D01*
X51796Y-32734D01*
X51796Y-32439D01*
X51796Y-33110D01*
X51796Y-32815D01*
X51770Y-32789D01*
X51431Y-32789D01*
X51431Y-33167D01*
X51457Y-33193D01*
X51671Y-33193D01*
X51713Y-33193D01*
X51751Y-33177D01*
X51780Y-33148D01*
X51796Y-33110D01*
X51796Y-33346D01*
X51782Y-33340D01*
X51740Y-33340D01*
X51402Y-33340D01*
X51402Y-33167D01*
X51402Y-32789D01*
X51402Y-32760D01*
X51402Y-32382D01*
X51376Y-32356D01*
X51162Y-32356D01*
X51120Y-32356D01*
X51082Y-32372D01*
X51053Y-32401D01*
X51037Y-32439D01*
X51037Y-32734D01*
X51063Y-32760D01*
X51402Y-32760D01*
X51402Y-32789D01*
X51063Y-32789D01*
X51037Y-32815D01*
X51037Y-33110D01*
X51053Y-33148D01*
X51082Y-33177D01*
X51120Y-33193D01*
X51162Y-33193D01*
X51376Y-33193D01*
X51402Y-33167D01*
X51402Y-33340D01*
X51209Y-33340D01*
X51171Y-33356D01*
X51142Y-33385D01*
X51126Y-33423D01*
X51126Y-33465D01*
X51126Y-33622D01*
X51138Y-33651D01*
X51126Y-33679D01*
X51126Y-33721D01*
X51126Y-33878D01*
X51138Y-33907D01*
X51126Y-33935D01*
X51126Y-33977D01*
X51126Y-34134D01*
X51138Y-34163D01*
X51126Y-34191D01*
X51126Y-34233D01*
X51126Y-34390D01*
X51138Y-34419D01*
X51126Y-34447D01*
X51126Y-34506D01*
X51152Y-34532D01*
X51481Y-34532D01*
X51481Y-34524D01*
X51510Y-34524D01*
X51510Y-34532D01*
X51839Y-34532D01*
X51865Y-34506D01*
X51865Y-34458D01*
X51884Y-34505D01*
X51906Y-34527D01*
X51855Y-34577D01*
X51839Y-34561D01*
X51510Y-34561D01*
X51510Y-34703D01*
X51536Y-34729D01*
X51740Y-34729D01*
X51782Y-34729D01*
X51808Y-34718D01*
X51808Y-34771D01*
X51844Y-34859D01*
X51911Y-34926D01*
X51999Y-34962D01*
X52094Y-34962D01*
X52095Y-34962D01*
X52347Y-35213D01*
X52347Y-35380D01*
X52363Y-35418D01*
X52392Y-35447D01*
X52430Y-35463D01*
X52471Y-35463D01*
X52569Y-35463D01*
X52607Y-35447D01*
X52625Y-35430D01*
X52642Y-35447D01*
X52668Y-35458D01*
X52632Y-35494D01*
X52596Y-35582D01*
X52596Y-35677D01*
X52632Y-35765D01*
X52699Y-35832D01*
X52787Y-35868D01*
X52882Y-35868D01*
X52970Y-35832D01*
X53037Y-35765D01*
X53037Y-35763D01*
X53150Y-35763D01*
X53201Y-35753D01*
X53201Y-35753D01*
X53244Y-35724D01*
X53344Y-35624D01*
X53373Y-35581D01*
X53383Y-35530D01*
X53383Y-35439D01*
X53392Y-35447D01*
X53430Y-35463D01*
X53471Y-35463D01*
X53569Y-35463D01*
X53607Y-35447D01*
X53625Y-35430D01*
X53642Y-35447D01*
X53680Y-35463D01*
X53721Y-35463D01*
X53819Y-35463D01*
X53857Y-35447D01*
X53875Y-35430D01*
X53892Y-35447D01*
X53930Y-35463D01*
X53959Y-35463D01*
X53985Y-35437D01*
X53985Y-35177D01*
X53977Y-35177D01*
X53977Y-35148D01*
X53985Y-35148D01*
X53985Y-34888D01*
X53959Y-34862D01*
X53930Y-34862D01*
X53892Y-34878D01*
X53883Y-34886D01*
X53883Y-34779D01*
X53922Y-34741D01*
X53958Y-34653D01*
X53958Y-34558D01*
X53922Y-34470D01*
X53855Y-34403D01*
X53767Y-34367D01*
X53672Y-34367D01*
X53584Y-34403D01*
X53558Y-34429D01*
X53558Y-34268D01*
X53690Y-34136D01*
X53692Y-34136D01*
X53787Y-34136D01*
X53875Y-34100D01*
X53942Y-34033D01*
X53978Y-33945D01*
X53978Y-33850D01*
X53942Y-33762D01*
X53935Y-33755D01*
X54078Y-33755D01*
X54827Y-34504D01*
X54827Y-34601D01*
X54883Y-34736D01*
X54987Y-34840D01*
X55123Y-34897D01*
X55270Y-34897D01*
X55405Y-34841D01*
X55509Y-34737D01*
X55566Y-34601D01*
X55566Y-34454D01*
X55510Y-34319D01*
X55406Y-34215D01*
X55270Y-34158D01*
X55123Y-34158D01*
X54988Y-34214D01*
X54951Y-34250D01*
X54531Y-33830D01*
X54883Y-33750D01*
X54883Y-33751D01*
X54987Y-33855D01*
X55123Y-33912D01*
X55270Y-33912D01*
X55405Y-33856D01*
X55509Y-33752D01*
X55566Y-33616D01*
X55566Y-33469D01*
X55566Y-32485D01*
X55510Y-32350D01*
X55406Y-32246D01*
X55270Y-32189D01*
X55123Y-32189D01*
X54988Y-32245D01*
X54884Y-32349D01*
X54827Y-32485D01*
X54827Y-32632D01*
X54883Y-32767D01*
X54987Y-32871D01*
X55123Y-32928D01*
X55270Y-32928D01*
X55405Y-32872D01*
X55509Y-32768D01*
X55566Y-32632D01*
X55566Y-32485D01*
X55566Y-33469D01*
X55510Y-33334D01*
X55406Y-33230D01*
X55270Y-33173D01*
X55123Y-33173D01*
X54988Y-33229D01*
X54884Y-33333D01*
X54827Y-33469D01*
X54827Y-33489D01*
X54542Y-33553D01*
X54383Y-33394D01*
X54383Y-33295D01*
X54386Y-33292D01*
X54402Y-33254D01*
X54402Y-33213D01*
X54402Y-32819D01*
X54386Y-32781D01*
X54357Y-32752D01*
X54319Y-32736D01*
X54278Y-32736D01*
X54180Y-32736D01*
X54142Y-32752D01*
X54124Y-32769D01*
X54107Y-32752D01*
X54069Y-32736D01*
X54028Y-32736D01*
X53930Y-32736D01*
X53892Y-32752D01*
X53882Y-32761D01*
X53873Y-32714D01*
X53873Y-32714D01*
X53844Y-32671D01*
X53837Y-32664D01*
X54774Y-32664D01*
X54774Y-32270D01*
X54732Y-32270D01*
X54732Y-32068D01*
X55727Y-32068D01*
X55727Y-36002D01*
M02*
