G04 (created by PCBNEW (2013-07-07 BZR 4022)-stable) date 1/29/2014 11:34:29*
%MOIN*%
G04 Gerber Fmt 3.4, Leading zero omitted, Abs format*
%FSLAX34Y34*%
G01*
G70*
G90*
G04 APERTURE LIST*
%ADD10C,0.00590551*%
%ADD11C,0.005*%
%ADD12C,0.00245*%
%ADD13C,0.0025*%
G04 APERTURE END LIST*
G54D10*
G54D11*
X50967Y-35053D02*
X51867Y-35053D01*
X51867Y-35053D02*
X51867Y-34553D01*
X51867Y-34553D02*
X50967Y-34553D01*
X50967Y-34553D02*
X50967Y-35053D01*
X50967Y-34266D02*
X51867Y-34266D01*
X51867Y-34266D02*
X51867Y-33766D01*
X51867Y-33766D02*
X50967Y-33766D01*
X50967Y-33766D02*
X50967Y-34266D01*
X52600Y-35300D02*
X51700Y-35300D01*
X51700Y-35300D02*
X51700Y-35800D01*
X51700Y-35800D02*
X52600Y-35800D01*
X52600Y-35800D02*
X52600Y-35300D01*
X50967Y-33478D02*
X51867Y-33478D01*
X51867Y-33478D02*
X51867Y-32978D01*
X51867Y-32978D02*
X50967Y-32978D01*
X50967Y-32978D02*
X50967Y-33478D01*
X52581Y-35211D02*
X53481Y-35211D01*
X53481Y-35211D02*
X53481Y-34711D01*
X53481Y-34711D02*
X52581Y-34711D01*
X52581Y-34711D02*
X52581Y-35211D01*
X52581Y-34423D02*
X53481Y-34423D01*
X53481Y-34423D02*
X53481Y-33923D01*
X53481Y-33923D02*
X52581Y-33923D01*
X52581Y-33923D02*
X52581Y-34423D01*
X54050Y-33950D02*
X54050Y-34850D01*
X54050Y-34850D02*
X54550Y-34850D01*
X54550Y-34850D02*
X54550Y-33950D01*
X54550Y-33950D02*
X54050Y-33950D01*
X53050Y-35300D02*
G75*
G03X53050Y-35300I-50J0D01*
G74*
G01*
X53450Y-35300D02*
X53050Y-35300D01*
X53050Y-35300D02*
X53050Y-35900D01*
X53050Y-35900D02*
X53450Y-35900D01*
X53850Y-35900D02*
X54250Y-35900D01*
X54250Y-35900D02*
X54250Y-35300D01*
X54250Y-35300D02*
X53850Y-35300D01*
X51400Y-32150D02*
G75*
G03X51400Y-32150I-50J0D01*
G74*
G01*
X51800Y-32150D02*
X51400Y-32150D01*
X51400Y-32150D02*
X51400Y-32750D01*
X51400Y-32750D02*
X51800Y-32750D01*
X52200Y-32750D02*
X52600Y-32750D01*
X52600Y-32750D02*
X52600Y-32150D01*
X52600Y-32150D02*
X52200Y-32150D01*
G54D12*
X51433Y-34842D02*
X51466Y-34796D01*
X51489Y-34842D02*
X51489Y-34744D01*
X51452Y-34744D01*
X51442Y-34749D01*
X51438Y-34754D01*
X51433Y-34763D01*
X51433Y-34777D01*
X51438Y-34786D01*
X51442Y-34791D01*
X51452Y-34796D01*
X51489Y-34796D01*
X51340Y-34842D02*
X51396Y-34842D01*
X51368Y-34842D02*
X51368Y-34744D01*
X51377Y-34758D01*
X51386Y-34768D01*
X51396Y-34772D01*
G54D13*
G54D12*
X51433Y-34055D02*
X51466Y-34009D01*
X51489Y-34055D02*
X51489Y-33957D01*
X51452Y-33957D01*
X51442Y-33962D01*
X51438Y-33967D01*
X51433Y-33976D01*
X51433Y-33990D01*
X51438Y-33999D01*
X51442Y-34004D01*
X51452Y-34009D01*
X51489Y-34009D01*
X51396Y-33967D02*
X51391Y-33962D01*
X51382Y-33957D01*
X51358Y-33957D01*
X51349Y-33962D01*
X51344Y-33967D01*
X51340Y-33976D01*
X51340Y-33985D01*
X51344Y-33999D01*
X51400Y-34055D01*
X51340Y-34055D01*
G54D13*
G54D12*
X52166Y-35589D02*
X52199Y-35543D01*
X52222Y-35589D02*
X52222Y-35491D01*
X52185Y-35491D01*
X52175Y-35496D01*
X52171Y-35501D01*
X52166Y-35510D01*
X52166Y-35524D01*
X52171Y-35533D01*
X52175Y-35538D01*
X52185Y-35543D01*
X52222Y-35543D01*
X52133Y-35491D02*
X52073Y-35491D01*
X52105Y-35529D01*
X52091Y-35529D01*
X52082Y-35533D01*
X52077Y-35538D01*
X52073Y-35547D01*
X52073Y-35571D01*
X52077Y-35580D01*
X52082Y-35585D01*
X52091Y-35589D01*
X52119Y-35589D01*
X52129Y-35585D01*
X52133Y-35580D01*
G54D13*
G54D12*
X51433Y-33267D02*
X51466Y-33221D01*
X51489Y-33267D02*
X51489Y-33169D01*
X51452Y-33169D01*
X51442Y-33174D01*
X51438Y-33179D01*
X51433Y-33188D01*
X51433Y-33202D01*
X51438Y-33211D01*
X51442Y-33216D01*
X51452Y-33221D01*
X51489Y-33221D01*
X51349Y-33202D02*
X51349Y-33267D01*
X51372Y-33165D02*
X51396Y-33235D01*
X51335Y-33235D01*
G54D13*
G54D12*
X53047Y-34991D02*
X53052Y-34996D01*
X53066Y-35000D01*
X53075Y-35000D01*
X53089Y-34996D01*
X53098Y-34986D01*
X53103Y-34977D01*
X53108Y-34958D01*
X53108Y-34944D01*
X53103Y-34926D01*
X53098Y-34916D01*
X53089Y-34907D01*
X53075Y-34902D01*
X53066Y-34902D01*
X53052Y-34907D01*
X53047Y-34912D01*
X52954Y-35000D02*
X53010Y-35000D01*
X52982Y-35000D02*
X52982Y-34902D01*
X52991Y-34916D01*
X53000Y-34926D01*
X53010Y-34930D01*
G54D13*
G54D12*
X53047Y-34203D02*
X53052Y-34208D01*
X53066Y-34212D01*
X53075Y-34212D01*
X53089Y-34208D01*
X53098Y-34198D01*
X53103Y-34189D01*
X53108Y-34170D01*
X53108Y-34156D01*
X53103Y-34138D01*
X53098Y-34128D01*
X53089Y-34119D01*
X53075Y-34114D01*
X53066Y-34114D01*
X53052Y-34119D01*
X53047Y-34124D01*
X53010Y-34124D02*
X53005Y-34119D01*
X52996Y-34114D01*
X52972Y-34114D01*
X52963Y-34119D01*
X52958Y-34124D01*
X52954Y-34133D01*
X52954Y-34142D01*
X52958Y-34156D01*
X53014Y-34212D01*
X52954Y-34212D01*
G54D13*
G54D12*
X54330Y-34383D02*
X54335Y-34379D01*
X54339Y-34365D01*
X54339Y-34355D01*
X54335Y-34341D01*
X54325Y-34332D01*
X54316Y-34327D01*
X54297Y-34323D01*
X54283Y-34323D01*
X54265Y-34327D01*
X54255Y-34332D01*
X54246Y-34341D01*
X54241Y-34355D01*
X54241Y-34365D01*
X54246Y-34379D01*
X54251Y-34383D01*
X54241Y-34416D02*
X54241Y-34477D01*
X54279Y-34444D01*
X54279Y-34458D01*
X54283Y-34467D01*
X54288Y-34472D01*
X54297Y-34477D01*
X54321Y-34477D01*
X54330Y-34472D01*
X54335Y-34467D01*
X54339Y-34458D01*
X54339Y-34430D01*
X54335Y-34421D01*
X54330Y-34416D01*
G54D13*
G54D12*
X53722Y-35639D02*
X53722Y-35541D01*
X53699Y-35541D01*
X53685Y-35546D01*
X53675Y-35555D01*
X53671Y-35565D01*
X53666Y-35583D01*
X53666Y-35597D01*
X53671Y-35616D01*
X53675Y-35625D01*
X53685Y-35635D01*
X53699Y-35639D01*
X53722Y-35639D01*
X53573Y-35639D02*
X53629Y-35639D01*
X53601Y-35639D02*
X53601Y-35541D01*
X53610Y-35555D01*
X53619Y-35565D01*
X53629Y-35569D01*
G54D13*
G54D12*
X52072Y-32489D02*
X52072Y-32391D01*
X52049Y-32391D01*
X52035Y-32396D01*
X52025Y-32405D01*
X52021Y-32415D01*
X52016Y-32433D01*
X52016Y-32447D01*
X52021Y-32466D01*
X52025Y-32475D01*
X52035Y-32485D01*
X52049Y-32489D01*
X52072Y-32489D01*
X51979Y-32401D02*
X51974Y-32396D01*
X51965Y-32391D01*
X51941Y-32391D01*
X51932Y-32396D01*
X51927Y-32401D01*
X51923Y-32410D01*
X51923Y-32419D01*
X51927Y-32433D01*
X51983Y-32489D01*
X51923Y-32489D01*
G54D13*
M02*
